<svg xmlns="http://www.w3.org/2000/svg" width="64" height="64" viewBox="0 0 64 64">
  <rect width="64" height="64" rx="16" fill="#0a0a0b"/>
  <g fill="none" stroke="#ffffff" stroke-width="3.4" stroke-linecap="round" stroke-linejoin="round">
    <circle cx="32" cy="32" r="6.5"/>
    <path d="M32 25.5c3-6 3-10 0-13.5-3 3.5-3 7.5 0 13.5Z"/>
    <path d="M32 38.5c-3 6-3 10 0 13.5 3-3.5 3-7.5 0-13.5Z"/>
    <path d="M25.5 32c-6-3-10-3-13.5 0 3.5 3 7.5 3 13.5 0Z"/>
    <path d="M38.5 32c6-3 10-3 13.5 0-3.5 3-7.5 3-13.5 0Z"/>
  </g>
</svg>
