<?xml version="1.0" encoding="UTF-8" standalone="no"?>
<!-- Created with Inkscape (http://www.inkscape.org/) -->

<svg
   xmlns:dc="http://purl.org/dc/elements/1.1/"
   xmlns:cc="http://creativecommons.org/ns#"
   xmlns:rdf="http://www.w3.org/1999/02/22-rdf-syntax-ns#"
   xmlns:svg="http://www.w3.org/2000/svg"
   xmlns="http://www.w3.org/2000/svg"
   xmlns:sodipodi="http://sodipodi.sourceforge.net/DTD/sodipodi-0.dtd"
   xmlns:inkscape="http://www.inkscape.org/namespaces/inkscape"
   width="204.30653"
   height="47.599251"
   viewBox="0 0 54.056102 12.593967"
   version="1.1"
   id="svg16393"
   inkscape:version="0.92.0 r15299"
   sodipodi:docname="aveeno.svg">
  <defs
     id="defs16387">
    <clipPath
       id="clipPath15442"
       clipPathUnits="userSpaceOnUse">
      <path
         inkscape:connector-curvature="0"
         id="path15440"
         d="m 441.442,733.864 h 151.729 v 34.2 H 441.442 Z" />
    </clipPath>
  </defs>
  <sodipodi:namedview
     id="base"
     pagecolor="#ffffff"
     bordercolor="#666666"
     borderopacity="1.0"
     inkscape:pageopacity="0.0"
     inkscape:pageshadow="2"
     inkscape:zoom="1.9166667"
     inkscape:cx="234"
     inkscape:cy="-29.435398"
     inkscape:document-units="mm"
     inkscape:current-layer="layer1"
     showgrid="false"
     inkscape:window-width="1280"
     inkscape:window-height="744"
     inkscape:window-x="-4"
     inkscape:window-y="-4"
     inkscape:window-maximized="1"
     fit-margin-top="0"
     fit-margin-left="0"
     fit-margin-right="0"
     fit-margin-bottom="0"
     units="px" />
  <metadata
     id="metadata16390">
    <rdf:RDF>
      <cc:Work
         rdf:about="">
        <dc:format>image/svg+xml</dc:format>
        <dc:type
           rdf:resource="http://purl.org/dc/dcmitype/StillImage" />
        <dc:title></dc:title>
      </cc:Work>
    </rdf:RDF>
  </metadata>
  <g
     inkscape:label="Layer 1"
     inkscape:groupmode="layer"
     id="layer1"
     transform="translate(-8.7664691,-178.55753)">
    <g
       id="g16489"
       style="fill:#47322e;fill-opacity:1"
       transform="translate(0.26458392,-0.26457515)">
      <path
         d="m 43.10808,189.42837 v -2.91712 -1.08162 c 0.01517,-0.7112 -0.05327,-1.9244 -0.05327,-1.9244 h 1.685925 c 0,0 0.0081,0.62265 0.0081,1.25977 v 0.20708 c 0.899231,-1.00965 1.811161,-1.52541 2.869495,-1.60478 0.538691,-0.0134 1.615016,0.085 2.203097,0.60889 0.519289,0.45297 0.6604,1.03822 0.6604,2.09232 v 1.21215 2.0581 c 0,0.26494 0.0381,1.58362 0.0381,1.58362 H 48.87388 c 0,0 -0.02716,-0.87559 -0.02716,-1.62172 v -2.77424 c 0,-1.11936 -0.07514,-1.80022 -0.415925,-2.13748 -0.213431,-0.21131 -0.542925,-0.30409 -1.037872,-0.28046 -1.283053,0.0194 -2.649008,1.4672 -2.649008,2.82046 v 2.40982 c 0,0.26494 -0.0014,1.58362 -0.0014,1.58362 h -1.642533 c 0,0 0.0081,-0.8509 0.0081,-1.49401"
         style="fill:#47322e;fill-opacity:1;fill-rule:nonzero;stroke:none;stroke-width:0.35277778"
         id="path15446"
         inkscape:connector-curvature="0" />
      <path
         d="m 40.160058,185.84506 c -0.04304,-0.71579 -0.401461,-1.23261 -0.765175,-1.54764 -0.309386,-0.27481 -0.676275,-0.34078 -0.972961,-0.34078 -0.05962,0 -0.112889,0 -0.166864,0.004 -1.04775,0.0681 -1.677105,0.76271 -1.948039,1.88419 z m -1.401586,4.58787 c 0.692855,0.0159 1.694392,-0.20496 2.260247,-0.71684 l 0.0374,-0.0275 0.35948,0.40711 -0.04022,0.0286 c -0.949325,0.7366 -1.92405,1.00225 -2.801055,1.00718 -1.285169,0.0127 -2.352675,-0.51293 -2.816578,-0.85583 -0.980722,-0.75001 -1.351491,-1.78894 -1.489075,-2.53189 -0.136172,-0.87806 0.158045,-1.93746 0.765175,-2.7432 0.493889,-0.65722 1.287639,-1.4605 2.96157,-1.65806 0.656519,-0.0716 1.875719,-0.0794 2.797175,0.66429 0.667808,0.54221 1.195563,1.36066 1.302455,2.4518 l 0.0074,0.0462 h -5.940424 c -0.01376,0.16334 -0.02081,0.3228 -0.02081,0.47837 0,1.04634 0.290689,1.93393 0.836083,2.56011 0.469547,0.53975 1.097492,0.85019 1.781175,0.8897"
         style="fill:#47322e;fill-opacity:1;fill-rule:nonzero;stroke:none;stroke-width:0.35277778"
         id="path15450"
         inkscape:connector-curvature="0" />
      <path
         d="m 31.506348,185.84506 c -0.04127,-0.71579 -0.400756,-1.23261 -0.764469,-1.54764 -0.307975,-0.27481 -0.675217,-0.34078 -0.97155,-0.34078 -0.05962,0 -0.112537,0 -0.167217,0.004 -1.04775,0.0681 -1.678164,0.76271 -1.948744,1.88419 z m -1.400175,4.58787 c 0.693914,0.0159 1.694039,-0.20496 2.259189,-0.71684 l 0.0381,-0.0275 0.360186,0.40711 -0.03986,0.0286 c -0.95003,0.7366 -1.923697,1.00225 -2.803172,1.00718 -1.285169,0.0127 -2.350558,-0.51293 -2.814814,-0.85583 -0.980369,-0.75001 -1.351139,-1.78894 -1.48978,-2.53189 -0.13582,-0.87806 0.15875,-1.93746 0.767644,-2.7432 0.491772,-0.65722 1.285875,-1.4605 2.9591,-1.65806 0.65793,-0.0716 1.876425,-0.0794 2.798586,0.66429 0.668514,0.54221 1.194506,1.36066 1.302456,2.4518 l 0.0071,0.0462 h -5.94113 c -0.01517,0.16334 -0.01976,0.3228 -0.01976,0.47837 0,1.04634 0.289631,1.93393 0.83432,2.56011 0.4699,0.53975 1.097844,0.85019 1.78188,0.8897"
         style="fill:#47322e;fill-opacity:1;fill-rule:nonzero;stroke:none;stroke-width:0.35277778"
         id="path15454"
         inkscape:connector-curvature="0" />
      <path
         d="m 22.282691,188.83616 c 0.07373,-0.14605 2.88678,-5.4864 2.88678,-5.4864 h 0.836084 c 0,0 -0.545395,1.00718 -0.914753,1.69474 l -0.01482,0.0279 -3.033183,5.85047 h -0.5715 l -2.80423,-5.85047 c -0.40252,-0.79868 -0.839611,-1.72261 -0.839611,-1.72261 h 1.830916 c 0,0 2.553053,5.34035 2.624314,5.4864"
         style="fill:#47322e;fill-opacity:1;fill-rule:nonzero;stroke:none;stroke-width:0.35277778"
         id="path15458"
         inkscape:connector-curvature="0" />
      <path
         d="m 14.487819,179.08669 4.3815,9.85908 c 0.335844,0.78669 1.0922,1.97732 1.0922,1.97732 h -2.338564 c 0,0 -1.879247,-4.3434 -1.903236,-4.39349 h -4.067175 c -0.02152,0.0501 -1.881011,4.39349 -1.881011,4.39349 H 8.7664691 c 0,0 0.5517445,-0.94686 0.866775,-1.69369 l 4.4562889,-10.14271 z m 0.865364,6.74758 c -0.04763,-0.11677 -1.59385,-3.62479 -1.671814,-3.79659 -0.07373,0.1718 -1.613606,3.67382 -1.664406,3.7913 z"
         style="fill:#47322e;fill-opacity:1;fill-rule:nonzero;stroke:none;stroke-width:0.35277778"
         id="path15462"
         inkscape:connector-curvature="0" />
      <path
         d="m 55.933951,190.49249 c -1.440744,0 -2.609144,-1.45344 -2.609144,-3.24344 0,-1.79211 1.1684,-3.24485 2.609144,-3.24485 1.442861,0 2.610555,1.45274 2.610555,3.24485 0,1.79 -1.167694,3.24344 -2.610555,3.24344 m 7.06e-4,-7.14869 c -2.49802,0 -4.524375,1.74872 -4.524375,3.90384 0,2.15583 2.026355,3.90384 4.524375,3.90384 2.498019,0 4.522258,-1.74801 4.522258,-3.90384 0,-2.15512 -2.024239,-3.90384 -4.522258,-3.90384"
         style="fill:#47322e;fill-opacity:1;fill-rule:nonzero;stroke:none;stroke-width:0.35277778"
         id="path15466"
         inkscape:connector-curvature="0" />
      <path
         d="m 61.411461,190.17629 c 0.111125,0 0.170744,-0.0596 0.170744,-0.14217 v -0.005 c 0,-0.0956 -0.06773,-0.14464 -0.176388,-0.14464 h -0.214842 v 0.2921 z m -0.439914,-0.48648 h 0.442383 c 0.134056,0 0.238125,0.0388 0.30727,0.10866 0.05468,0.0547 0.08325,0.12946 0.08325,0.21731 v 0.006 c 0,0.15981 -0.08819,0.26106 -0.214488,0.30727 l 0.243063,0.35736 h -0.256469 l -0.212019,-0.32067 h -0.0053 -0.168275 v 0.32067 h -0.219428 z m 1.213203,0.52599 v -0.006 c 0,-0.45755 -0.354189,-0.82797 -0.8255,-0.82797 -0.473428,0 -0.830439,0.37536 -0.830439,0.83397 v 0.004 c 0,0.45791 0.354189,0.82797 0.8255,0.82797 0.473075,0 0.830439,-0.375 0.830439,-0.8322 m -1.764595,0.004 v -0.004 c 0,-0.51012 0.414162,-0.93733 0.939095,-0.93733 0.525286,0 0.934155,0.42157 0.934155,0.93133 v 0.006 c 0,0.50835 -0.414513,0.93592 -0.939094,0.93592 -0.525286,0 -0.934156,-0.42157 -0.934156,-0.93169"
         style="fill:#47322e;fill-opacity:1;fill-rule:nonzero;stroke:none;stroke-width:0.35277778"
         id="path15470"
         inkscape:connector-curvature="0" />
    </g>
  </g>
</svg>
