<svg width="232" height="47" viewBox="0 0 232 47" xmlns="http://www.w3.org/2000/svg" fill="#003a70">
          <path d="M0 39.5234H1.21373V45.1968H4.10626V46.2842H0V39.5234Z"></path>
          <path d="M10.0743 39.5234H11.1236L14.0561 46.2842H12.6721L12.0369 44.7348H9.08736L8.47477 46.2842H7.11914L10.0743 39.5234ZM11.6114 43.7038L10.5621 40.9545L9.49575 43.7038H11.6114Z"></path>
          <path d="M17.6969 39.5234H20.3514C20.6067 39.5234 20.8619 39.5516 21.1115 39.6136C21.3611 39.6756 21.5823 39.7713 21.7808 39.9122C21.9737 40.0474 22.1325 40.2277 22.2573 40.4418C22.3764 40.6559 22.4388 40.9207 22.4388 41.2249C22.4388 41.608 22.331 41.9235 22.1098 42.1714C21.8942 42.4193 21.605 42.5996 21.2533 42.7066V42.7235C21.4632 42.7517 21.6617 42.808 21.8432 42.8982C22.0247 42.9883 22.1835 43.1066 22.3083 43.2531C22.4388 43.394 22.5352 43.563 22.6089 43.7489C22.6827 43.9348 22.7167 44.1377 22.7167 44.3574C22.7167 44.7292 22.643 45.0335 22.4955 45.2757C22.348 45.5236 22.1552 45.7208 21.9113 45.8673C21.673 46.0194 21.3951 46.1264 21.0831 46.1884C20.7712 46.2504 20.4592 46.2842 20.1359 46.2842H17.6855V39.5234H17.6969ZM18.905 42.2728H20.0111C20.4138 42.2728 20.7201 42.1939 20.9186 42.0362C21.1228 41.8784 21.2193 41.6756 21.2193 41.4221C21.2193 41.1291 21.1172 40.9094 20.9073 40.7686C20.6974 40.6277 20.3628 40.5545 19.9033 40.5545H18.905V42.2728ZM18.905 45.2532H20.0225C20.1756 45.2532 20.3401 45.2419 20.5159 45.225C20.6918 45.2081 20.8563 45.163 21.0037 45.0898C21.1512 45.0222 21.2703 44.9208 21.3667 44.7912C21.4632 44.6616 21.5085 44.487 21.5085 44.2616C21.5085 43.9067 21.3894 43.6588 21.1569 43.5179C20.9243 43.3771 20.5613 43.3095 20.0678 43.3095H18.905V45.2532Z"></path>
          <path d="M26.4434 42.9311C26.4434 42.3903 26.5341 41.9001 26.7099 41.455C26.8915 41.01 27.1354 40.6381 27.453 40.3226C27.7706 40.0128 28.1507 39.7705 28.5874 39.6015C29.0242 39.4325 29.5063 39.3479 30.0338 39.3479C30.567 39.3423 31.0548 39.4212 31.4972 39.5846C31.9396 39.748 32.3197 39.9846 32.643 40.2945C32.9663 40.6043 33.2159 40.9818 33.3917 41.4212C33.5732 41.8607 33.6583 42.3508 33.6583 42.8917C33.6583 43.4213 33.5675 43.9002 33.3917 44.334C33.2102 44.7678 32.9606 45.1396 32.643 45.4495C32.3253 45.7594 31.9396 46.0073 31.4972 46.1819C31.0548 46.3566 30.567 46.4467 30.0338 46.4524C29.5063 46.4524 29.0242 46.3678 28.5874 46.1988C28.1507 46.0298 27.7706 45.7932 27.453 45.4833C27.1354 45.1735 26.8858 44.8016 26.7099 44.3734C26.5341 43.9396 26.4434 43.4607 26.4434 42.9311ZM27.7139 42.8523C27.7139 43.2128 27.7706 43.5509 27.8841 43.8551C27.9975 44.1593 28.1563 44.4241 28.3605 44.6495C28.5647 44.8748 28.8086 45.0495 29.0979 45.1734C29.3815 45.303 29.6992 45.365 30.0565 45.365C30.4082 45.365 30.7315 45.303 31.0151 45.1734C31.3044 45.0439 31.5483 44.8692 31.7581 44.6495C31.9623 44.4241 32.1211 44.165 32.2346 43.8551C32.348 43.5509 32.4047 43.2185 32.4047 42.8523C32.4047 42.5142 32.348 42.1987 32.2346 41.9058C32.1211 41.6128 31.9623 41.3593 31.7581 41.1395C31.5539 40.9198 31.3044 40.7508 31.0151 40.6212C30.7258 40.4973 30.4082 40.4353 30.0565 40.4353C29.7048 40.4353 29.3872 40.4973 29.0979 40.6212C28.8143 40.7452 28.5647 40.9198 28.3605 41.1395C28.1563 41.3593 27.9975 41.6128 27.8841 41.9058C27.7706 42.1987 27.7139 42.5142 27.7139 42.8523Z"></path>
          <path d="M37.6971 39.5234H40.0623C40.3913 39.5234 40.7033 39.5516 41.0096 39.6136C41.3159 39.6756 41.5825 39.777 41.8207 39.9235C42.0589 40.0699 42.2461 40.2671 42.3879 40.515C42.5297 40.7629 42.5978 41.0784 42.5978 41.4615C42.5978 41.9517 42.4616 42.363 42.1894 42.6954C41.9171 43.0278 41.5257 43.225 41.0209 43.2982L42.8303 46.2842H41.3669L39.7901 43.4221H38.9052V46.2842H37.6914V39.5234H37.6971ZM39.8525 42.3855C40.0283 42.3855 40.1985 42.3799 40.3743 42.363C40.5501 42.3461 40.7033 42.3066 40.8508 42.2503C40.9982 42.1939 41.1117 42.0982 41.2024 41.9742C41.2932 41.8503 41.3386 41.6756 41.3386 41.4559C41.3386 41.2587 41.2989 41.101 41.2138 40.977C41.1287 40.8587 41.0209 40.7629 40.8848 40.7066C40.7487 40.6446 40.6012 40.6052 40.4367 40.5883C40.2722 40.5714 40.1134 40.5601 39.9602 40.5601H38.9109V42.3911H39.8525V42.3855Z"></path>
          <path d="M48.8358 39.5234H49.8852L52.8177 46.2842H51.4337L50.7984 44.7348H47.8489L47.2363 46.2842H45.875L48.8358 39.5234ZM50.3787 43.7038L49.3293 40.9545L48.263 43.7038H50.3787Z"></path>
          <path d="M56.9701 40.6108H54.8828V39.5234H60.2656V40.6108H58.1783V46.2842H56.9645V40.6108H56.9701Z"></path>
          <path d="M63.6133 42.9311C63.6133 42.3903 63.704 41.9001 63.8799 41.455C64.0614 41.01 64.3053 40.6381 64.6229 40.3226C64.9406 40.0128 65.3206 39.7705 65.7573 39.6015C66.1941 39.4325 66.6762 39.3479 67.2037 39.3479C67.7369 39.3423 68.2247 39.4212 68.6671 39.5846C69.1095 39.748 69.4896 39.9846 69.8129 40.2945C70.1362 40.6043 70.3858 40.9818 70.5616 41.4212C70.7431 41.8607 70.8282 42.3508 70.8282 42.8917C70.8282 43.4213 70.7374 43.9002 70.5616 44.334C70.3801 44.7678 70.1305 45.1396 69.8129 45.4495C69.4952 45.7594 69.1095 46.0073 68.6671 46.1819C68.2247 46.3566 67.7369 46.4467 67.2037 46.4524C66.6762 46.4524 66.1941 46.3678 65.7573 46.1988C65.3206 46.0298 64.9406 45.7932 64.6229 45.4833C64.3053 45.1735 64.0557 44.8016 63.8799 44.3734C63.704 43.9396 63.6133 43.4607 63.6133 42.9311ZM64.8838 42.8523C64.8838 43.2128 64.9405 43.5509 65.054 43.8551C65.1674 44.1593 65.3262 44.4241 65.5304 44.6495C65.7346 44.8748 65.9785 45.0495 66.2678 45.1734C66.5514 45.303 66.8691 45.365 67.2264 45.365C67.5781 45.365 67.9014 45.303 68.185 45.1734C68.4743 45.0439 68.7182 44.8692 68.928 44.6495C69.1322 44.4241 69.291 44.165 69.4045 43.8551C69.5179 43.5509 69.5747 43.2185 69.5747 42.8523C69.5747 42.5142 69.5179 42.1987 69.4045 41.9058C69.291 41.6128 69.1322 41.3593 68.928 41.1395C68.7238 40.9198 68.4743 40.7508 68.185 40.6212C67.8957 40.4973 67.5781 40.4353 67.2264 40.4353C66.8747 40.4353 66.5571 40.4973 66.2678 40.6212C65.9842 40.7452 65.7346 40.9198 65.5304 41.1395C65.3262 41.3593 65.1674 41.6128 65.054 41.9058C64.9405 42.1987 64.8838 42.5142 64.8838 42.8523Z"></path>
          <path d="M74.8379 39.5234H76.0516V46.2842H74.8379V39.5234Z"></path>
          <path d="M80.4256 39.5234H82.7909C83.1198 39.5234 83.4318 39.5516 83.7381 39.6136C84.0444 39.6756 84.311 39.777 84.5492 39.9235C84.7874 40.0699 84.9746 40.2671 85.1164 40.515C85.2582 40.7629 85.3263 41.0784 85.3263 41.4615C85.3263 41.9517 85.1902 42.363 84.9179 42.6954C84.6456 43.0278 84.2543 43.225 83.7495 43.2982L85.5589 46.2842H84.0954L82.5186 43.4221H81.6338V46.2842H80.4199V39.5234H80.4256ZM82.581 42.3855C82.7568 42.3855 82.927 42.3799 83.1028 42.363C83.2787 42.3461 83.4318 42.3066 83.5793 42.2503C83.7268 42.1939 83.8402 42.0982 83.931 41.9742C84.0217 41.8503 84.0671 41.6756 84.0671 41.4559C84.0671 41.2587 84.0274 41.101 83.9423 40.977C83.8572 40.8587 83.7494 40.7629 83.6133 40.7066C83.4772 40.6446 83.3297 40.6052 83.1652 40.5883C83.0007 40.5714 82.8419 40.5601 82.6888 40.5601H81.6394V42.3911H82.581V42.3855Z"></path>
          <path d="M89.3633 39.5234H93.8722V40.6108H90.577V42.2728H93.7021V43.3602H90.577V45.1912H94.048V46.2786H89.3689V39.5234H89.3633Z"></path>
          <path d="M103.85 39.5234H106.533C106.981 39.5234 107.412 39.5911 107.831 39.7263C108.251 39.8615 108.614 40.0699 108.937 40.3516C109.261 40.6333 109.516 40.9826 109.709 41.4052C109.902 41.8277 109.998 42.3292 109.998 42.8982C109.998 43.4785 109.89 43.9799 109.669 44.4024C109.448 44.825 109.164 45.1743 108.813 45.4504C108.461 45.7264 108.075 45.9349 107.65 46.0701C107.225 46.2053 106.805 46.2729 106.396 46.2729H103.861V39.5234H103.85ZM105.965 45.1912C106.345 45.1912 106.703 45.1461 107.037 45.0616C107.372 44.9771 107.667 44.8419 107.917 44.6616C108.166 44.4813 108.365 44.2447 108.506 43.9574C108.648 43.67 108.722 43.3151 108.722 42.9038C108.722 42.4982 108.66 42.1489 108.529 41.8559C108.399 41.5629 108.223 41.3263 107.996 41.146C107.769 40.9657 107.497 40.8305 107.19 40.746C106.879 40.6615 106.538 40.6164 106.169 40.6164H105.063V45.1968H105.965V45.1912Z"></path>
          <path d="M114.025 39.5234H118.534V40.6108H115.239V42.2728H118.364V43.3602H115.239V45.1912H118.71V46.2786H114.031V39.5234H114.025Z"></path>
          <path d="M122.785 39.5234H125.15C125.479 39.5234 125.791 39.5516 126.097 39.6136C126.404 39.6756 126.67 39.777 126.909 39.9235C127.147 40.0699 127.334 40.2671 127.476 40.515C127.618 40.7629 127.686 41.0784 127.686 41.4615C127.686 41.9517 127.55 42.363 127.277 42.6954C127.005 43.0278 126.614 43.225 126.109 43.2982L127.918 46.2842H126.455L124.878 43.4221H123.993V46.2842H122.779V39.5234H122.785ZM124.94 42.3855C125.116 42.3855 125.286 42.3799 125.462 42.363C125.638 42.3461 125.791 42.3066 125.939 42.2503C126.086 42.1939 126.2 42.0982 126.29 41.9742C126.381 41.8503 126.426 41.6756 126.426 41.4559C126.426 41.2587 126.387 41.101 126.302 40.977C126.217 40.8587 126.109 40.7629 125.973 40.7066C125.837 40.6446 125.689 40.6052 125.525 40.5883C125.36 40.5714 125.201 40.5601 125.048 40.5601H123.999V42.3911H124.94V42.3855Z"></path>
          <path d="M131.752 39.5234H133.595L135.41 44.2616L137.248 39.5234H139.075V46.2842H137.923V40.6728H137.906L135.842 46.2842H134.996L132.932 40.6728H132.915V46.2842H131.763V39.5234H131.752Z"></path>
          <path d="M145.711 39.5234H146.76L149.693 46.2842H148.309L147.674 44.7348H144.724L144.112 46.2842H142.756L145.711 39.5234ZM147.248 43.7038L146.199 40.9545L145.132 43.7038H147.248Z"></path>
          <path d="M153.839 40.6108H151.752V39.5234H157.135V40.6108H155.047V46.2842H153.834V40.6108H153.839Z"></path>
          <path d="M160.48 42.9311C160.48 42.3903 160.571 41.9001 160.747 41.455C160.923 41.01 161.172 40.6381 161.49 40.3226C161.808 40.0128 162.188 39.7705 162.625 39.6015C163.061 39.4325 163.543 39.3479 164.071 39.3479C164.604 39.3423 165.092 39.4212 165.534 39.5846C165.977 39.748 166.357 39.9846 166.68 40.2945C167.003 40.6043 167.253 40.9818 167.429 41.4212C167.61 41.8607 167.695 42.3508 167.695 42.8917C167.695 43.4213 167.605 43.9002 167.429 44.334C167.253 44.7678 166.998 45.1396 166.68 45.4495C166.362 45.7594 165.977 46.0073 165.534 46.1819C165.092 46.3566 164.604 46.4467 164.071 46.4524C163.543 46.4524 163.061 46.3678 162.625 46.1988C162.188 46.0298 161.808 45.7932 161.49 45.4833C161.172 45.1735 160.923 44.8016 160.747 44.3734C160.571 43.9396 160.48 43.4607 160.48 42.9311ZM161.751 42.8523C161.751 43.2128 161.808 43.5509 161.921 43.8551C162.035 44.1593 162.193 44.4241 162.398 44.6495C162.602 44.8748 162.846 45.0495 163.135 45.1734C163.419 45.303 163.742 45.365 164.094 45.365C164.445 45.365 164.769 45.303 165.052 45.1734C165.341 45.0439 165.585 44.8692 165.79 44.6495C165.994 44.4241 166.153 44.165 166.266 43.8551C166.379 43.5509 166.436 43.2185 166.436 42.8523C166.436 42.5142 166.379 42.1987 166.266 41.9058C166.153 41.6128 165.994 41.3593 165.79 41.1395C165.585 40.9198 165.336 40.7508 165.052 40.6212C164.763 40.4973 164.445 40.4353 164.094 40.4353C163.742 40.4353 163.424 40.4973 163.135 40.6212C162.851 40.7452 162.608 40.9198 162.398 41.1395C162.193 41.3593 162.035 41.6128 161.921 41.9058C161.808 42.1987 161.751 42.5142 161.751 42.8523Z"></path>
          <path d="M171.74 39.5234H172.948V45.1968H175.841V46.2842H171.734V39.5234H171.74Z"></path>
          <path d="M179.244 42.9311C179.244 42.3903 179.335 41.9001 179.511 41.455C179.687 41.01 179.936 40.6381 180.254 40.3226C180.571 40.0128 180.951 39.7705 181.388 39.6015C181.825 39.4325 182.307 39.3479 182.835 39.3479C183.368 39.3423 183.856 39.4212 184.298 39.5846C184.74 39.748 185.12 39.9846 185.444 40.2945C185.767 40.6043 186.017 40.9818 186.192 41.4212C186.374 41.8607 186.459 42.3508 186.459 42.8917C186.459 43.4213 186.368 43.9002 186.192 44.334C186.017 44.7678 185.761 45.1396 185.444 45.4495C185.126 45.7594 184.74 46.0073 184.298 46.1819C183.856 46.3566 183.368 46.4467 182.835 46.4524C182.307 46.4524 181.825 46.3678 181.388 46.1988C180.951 46.0298 180.571 45.7932 180.254 45.4833C179.936 45.1735 179.687 44.8016 179.511 44.3734C179.335 43.9396 179.244 43.4607 179.244 42.9311ZM180.515 42.8523C180.515 43.2128 180.571 43.5509 180.685 43.8551C180.798 44.1593 180.957 44.4241 181.161 44.6495C181.366 44.8748 181.609 45.0495 181.899 45.1734C182.182 45.303 182.506 45.365 182.857 45.365C183.209 45.365 183.532 45.303 183.816 45.1734C184.105 45.0439 184.349 44.8692 184.553 44.6495C184.757 44.4241 184.916 44.165 185.03 43.8551C185.143 43.5509 185.2 43.2185 185.2 42.8523C185.2 42.5142 185.143 42.1987 185.03 41.9058C184.916 41.6128 184.757 41.3593 184.553 41.1395C184.349 40.9198 184.099 40.7508 183.816 40.6212C183.527 40.4973 183.209 40.4353 182.857 40.4353C182.506 40.4353 182.188 40.4973 181.899 40.6212C181.615 40.7452 181.371 40.9198 181.161 41.1395C180.957 41.3593 180.798 41.6128 180.685 41.9058C180.571 42.1987 180.515 42.5142 180.515 42.8523Z"></path>
          <path d="M196.55 45.7894C195.711 46.2345 194.775 46.4599 193.737 46.4599C193.209 46.4599 192.727 46.3754 192.291 46.2063C191.854 46.0373 191.474 45.8007 191.156 45.4908C190.838 45.181 190.589 44.8091 190.413 44.381C190.232 43.9471 190.146 43.4683 190.146 42.9387C190.146 42.3978 190.237 41.9076 190.413 41.4626C190.589 41.0175 190.838 40.6456 191.156 40.3301C191.474 40.0203 191.854 39.778 192.291 39.609C192.727 39.44 193.209 39.3555 193.737 39.3555C194.259 39.3555 194.741 39.4174 195.2 39.5414C195.654 39.6653 196.062 39.8851 196.42 40.2062L195.524 41.102C195.308 40.8935 195.042 40.7301 194.73 40.6175C194.418 40.5048 194.089 40.4485 193.743 40.4485C193.391 40.4485 193.073 40.5104 192.784 40.6344C192.5 40.7583 192.257 40.933 192.047 41.1527C191.842 41.3724 191.684 41.6259 191.57 41.9189C191.457 42.2119 191.4 42.5274 191.4 42.8654C191.4 43.226 191.457 43.564 191.57 43.8683C191.684 44.1725 191.842 44.4373 192.047 44.6627C192.251 44.888 192.495 45.0627 192.784 45.1866C193.068 45.3162 193.391 45.3782 193.743 45.3782C194.049 45.3782 194.338 45.35 194.61 45.2937C194.883 45.2373 195.127 45.1472 195.336 45.0289V43.4344H193.941V42.3471H196.545V45.7894H196.55Z"></path>
          <path d="M200.838 39.5234H202.046V46.2842H200.838V39.5234Z"></path>
          <path d="M213.725 46.2831H209.766C209.233 46.2831 208.745 46.2042 208.291 46.0408C207.838 45.8774 207.446 45.6464 207.117 45.3422C206.788 45.038 206.527 44.6718 206.34 44.2323C206.153 43.7985 206.057 43.3027 206.057 42.7562C206.057 42.2604 206.153 41.8041 206.34 41.3872C206.527 40.9702 206.788 40.6097 207.112 40.3054C207.441 40.0012 207.821 39.7646 208.252 39.6012C208.683 39.4322 209.142 39.3477 209.63 39.3477C210.118 39.3477 210.577 39.4322 211.008 39.6012C211.439 39.7702 211.82 40.0068 212.149 40.3054C212.477 40.6097 212.733 40.9646 212.92 41.3872C213.107 41.8041 213.204 42.2604 213.204 42.7562C213.204 43.1111 213.158 43.4266 213.073 43.6971C212.988 43.9675 212.875 44.2041 212.733 44.4126C212.591 44.6211 212.438 44.7957 212.268 44.9309C212.097 45.0718 211.933 45.1901 211.774 45.2859V45.3028H213.725V46.2831ZM209.602 40.4406C209.273 40.4406 208.972 40.497 208.694 40.6153C208.416 40.7336 208.172 40.897 207.974 41.1055C207.77 41.3139 207.616 41.5618 207.497 41.8491C207.384 42.1365 207.327 42.4463 207.327 42.7844C207.327 43.128 207.384 43.4492 207.497 43.7422C207.611 44.0408 207.775 44.2943 207.979 44.5084C208.184 44.7225 208.428 44.8858 208.706 45.0098C208.983 45.1281 209.29 45.1901 209.624 45.1901C209.959 45.1901 210.265 45.1281 210.555 45.0098C210.844 44.8915 211.082 44.7225 211.292 44.5084C211.496 44.2943 211.655 44.0408 211.774 43.7422C211.893 43.4436 211.95 43.128 211.95 42.7844C211.95 42.4463 211.893 42.1365 211.774 41.8491C211.661 41.5618 211.496 41.3139 211.292 41.1055C211.088 40.897 210.844 40.7336 210.555 40.6153C210.265 40.497 209.948 40.4406 209.602 40.4406Z"></path>
          <path d="M222.942 43.7996C222.942 44.2053 222.874 44.5771 222.732 44.9039C222.59 45.2306 222.398 45.5123 222.154 45.7377C221.91 45.9687 221.621 46.1433 221.286 46.2673C220.951 46.3912 220.588 46.4532 220.197 46.4532C219.805 46.4532 219.442 46.3912 219.113 46.2673C218.779 46.1433 218.49 45.9687 218.246 45.7377C218.002 45.5067 217.809 45.2306 217.667 44.9039C217.531 44.5771 217.463 44.2109 217.463 43.7996V39.5234H218.671V43.7602C218.671 43.9236 218.694 44.0982 218.75 44.2785C218.802 44.4588 218.887 44.6278 219.006 44.7799C219.125 44.932 219.284 45.056 219.476 45.1574C219.669 45.2588 219.913 45.3039 220.203 45.3039C220.492 45.3039 220.736 45.2532 220.929 45.1574C221.121 45.0616 221.28 44.932 221.399 44.7799C221.518 44.6278 221.604 44.4588 221.655 44.2785C221.706 44.0982 221.734 43.9236 221.734 43.7602V39.5234H222.942V43.7996Z"></path>
          <path d="M227.314 39.5234H231.823V40.6108H228.528V42.2728H231.653V43.3602H228.528V45.1912H231.999V46.2786H227.32V39.5234H227.314Z"></path>
          <path d="M20.1184 17.5556C19.5171 16.8682 18.7911 16.3048 17.9686 15.8823C17.5659 15.6738 17.1462 15.5104 16.7094 15.3865C17.7077 14.8907 18.5585 14.2484 19.2619 13.454C20.2772 12.316 20.7877 10.8286 20.7877 9.04267C20.7877 7.74122 20.5438 6.58062 20.056 5.60031C19.5682 4.62 18.8932 3.79744 18.048 3.16644C17.2142 2.54107 16.2103 2.06782 15.0645 1.74669C13.9301 1.43119 12.6936 1.27344 11.3833 1.27344H0.691406V31.4658H11.2642C12.7446 31.4658 14.1456 31.2799 15.4275 30.908C16.7208 30.5362 17.8779 29.9841 18.8592 29.2686C19.8518 28.5418 20.6459 27.6347 21.2187 26.5755C21.7916 25.5107 22.0809 24.26 22.0809 22.8684C22.0809 21.8261 21.9051 20.8402 21.5534 19.9331C21.2017 19.0486 20.7196 18.2429 20.1184 17.5556ZM15.2687 11.33C15.0078 11.8202 14.6561 12.2259 14.2137 12.547C13.7656 12.8681 13.2268 13.1047 12.6255 13.24C11.9959 13.3808 11.3153 13.454 10.6006 13.454H5.58076V5.63975H11.4344C12.9034 5.63975 13.9868 6.02287 14.6448 6.77218C15.3311 7.54967 15.6601 8.44545 15.6601 9.50464C15.6544 10.2314 15.524 10.8455 15.2687 11.33ZM16.9477 22.5867C16.9477 23.5388 16.7491 24.305 16.3578 24.8628C15.955 25.4431 15.4502 25.9051 14.8717 26.2431C14.2818 26.5868 13.6351 26.8178 12.9602 26.9361C12.2512 27.0544 11.5989 27.1164 11.0146 27.1164H5.58076V17.8091H11.06C12.8978 17.8091 14.3612 18.2147 15.4162 19.0204C16.4428 19.8148 16.9477 20.981 16.9477 22.5867Z"></path>
          <path d="M32.194 1.28125H27.3047V31.4736H32.194V1.28125Z"></path>
          <path d="M65.4161 5.10084C64.0321 3.68108 62.3475 2.55429 60.4133 1.75427C58.4791 0.94861 56.3294 0.542969 54.0322 0.542969C51.735 0.542969 49.5853 0.954244 47.6511 1.75427C45.7169 2.55992 44.0323 3.6867 42.6483 5.10646C41.2643 6.52058 40.1696 8.21078 39.3868 10.132C38.6041 12.0531 38.207 14.1546 38.207 16.3856C38.207 18.6167 38.6041 20.7181 39.3868 22.6393C40.1696 24.5605 41.2643 26.2507 42.6483 27.6648C44.0323 29.0789 45.7112 30.2057 47.6511 31.0114C49.5853 31.817 51.735 32.2283 54.0322 32.2283C56.3294 32.2283 58.4791 31.8171 60.4133 31.017C62.3475 30.2114 64.0321 29.0846 65.4161 27.6648C66.7944 26.2507 67.8948 24.5605 68.6776 22.6393C69.4603 20.7181 69.8574 18.6167 69.8574 16.3856C69.8574 14.1602 69.4603 12.0588 68.6776 10.132C67.8948 8.20514 66.8001 6.51496 65.4161 5.10084ZM64.7184 16.38C64.7184 17.9181 64.4632 19.3942 63.9527 20.7632C63.4479 22.1266 62.7219 23.321 61.7916 24.3239C60.8614 25.3267 59.7327 26.1324 58.4281 26.7296C57.1292 27.3211 55.6488 27.6198 54.0265 27.6198C52.4043 27.6198 50.9239 27.3211 49.625 26.7296C48.3204 26.138 47.1916 25.3267 46.2614 24.3239C45.3312 23.321 44.6052 22.1266 44.1003 20.7632C43.5955 19.3998 43.3346 17.9237 43.3346 16.38C43.3346 14.8363 43.5899 13.3658 44.1003 11.9968C44.6052 10.639 45.3312 9.43897 46.2614 8.43613C47.1916 7.43328 48.3204 6.62764 49.625 6.03044C50.9239 5.43887 52.4043 5.14026 54.0265 5.14026C55.6488 5.14026 57.1292 5.43887 58.4281 6.03044C59.727 6.622 60.8614 7.43328 61.7916 8.43613C62.7219 9.43897 63.4479 10.6334 63.9527 11.9968C64.4632 13.3658 64.7184 14.8419 64.7184 16.38Z"></path>
          <path d="M100.64 10.0009C100.186 8.89663 99.5564 7.80364 98.7736 6.76136C97.9852 5.70781 96.9812 4.76131 95.7901 3.95002C94.6046 3.14437 93.1866 2.49082 91.5814 2.0063C89.9762 1.52742 88.0874 1.28516 85.9717 1.28516H75.2344V31.4775H85.308C87.9909 31.4775 90.4016 31.0493 92.4606 30.2042C94.5195 29.3592 96.2722 28.2155 97.6676 26.8182C99.0686 25.4154 100.135 23.7928 100.85 21.9899C101.564 20.1927 101.922 18.3053 101.922 16.3842C101.922 15.4546 101.82 14.4235 101.621 13.3249C101.422 12.2207 101.094 11.1051 100.64 10.0009ZM96.7827 16.3785C96.7827 18.125 96.4594 19.6687 95.8298 20.9702C95.1945 22.2716 94.3267 23.3703 93.2433 24.2323C92.1543 25.1055 90.861 25.7647 89.409 26.2041C87.9456 26.6436 86.3687 26.8689 84.7238 26.8689H80.1237V5.8881H85.6824C87.9853 5.8881 89.8798 6.26558 91.3091 7.01489C92.7442 7.76421 93.8786 8.69382 94.684 9.76427C95.4895 10.8404 96.0453 11.9953 96.3403 13.1841C96.6352 14.4066 96.7827 15.4771 96.7827 16.3785Z"></path>
          <path d="M112.745 18.3521H126.749V13.7436H112.745V5.88982H127.793V1.28125H107.855V31.4736H128.542V26.8707H112.745V18.3521Z"></path>
          <path d="M181.15 22.972L171.984 1.28125H165.285V31.4736H170.175V8.96595L179.477 31.4736H182.738L192.046 8.96595V31.4736H196.936V1.28125H190.237L181.15 22.972Z"></path>
          <path d="M218.382 1.28125H214.173L200.775 31.4736H206.425L209.34 24.2283H222.789L225.75 31.4736H231.388L218.382 1.28125ZM220.979 19.8733H211.127L216.09 7.91805L220.979 19.8733Z"></path>
          <path d="M151.848 19.9617C151.462 19.3927 151.139 18.9701 150.889 18.7053C150.656 18.4631 150.378 18.2603 150.061 18.0912L150.838 18.0067C151.74 17.849 152.574 17.5673 153.334 17.1616C154.281 16.6546 155.092 16.0236 155.75 15.2855C156.408 14.5475 156.918 13.708 157.27 12.7897C157.622 11.877 157.798 10.908 157.798 9.92202C157.798 8.97551 157.65 7.98394 157.366 6.96419C157.072 5.92191 156.544 4.9754 155.79 4.14157C155.041 3.31338 154.014 2.62041 152.732 2.08519C151.462 1.55559 149.834 1.28516 147.894 1.28516H135.279V31.4775H140.169V18.5589H142.301C143.078 18.5589 143.725 18.6265 144.23 18.7617C144.729 18.8969 145.183 19.1223 145.58 19.4378C145.988 19.7589 146.374 20.1871 146.731 20.6998C147.094 21.2237 147.542 21.8942 148.059 22.6886L151.297 27.2295C151.723 27.8831 153.691 30.3282 154.564 31.4775H160.214C159.601 30.7 152.233 20.5251 151.848 19.9617ZM140.169 5.64021H146.771C147.52 5.64021 148.274 5.70219 149.011 5.8205C149.72 5.93318 150.361 6.14727 150.912 6.4515C151.433 6.74446 151.865 7.16701 152.182 7.7135C152.5 8.26563 152.664 9.00368 152.664 9.91638C152.664 10.8291 152.5 11.5671 152.182 12.1193C151.865 12.6657 151.433 13.0939 150.912 13.3813C150.361 13.6855 149.72 13.8996 149.011 14.0123C148.274 14.1306 147.52 14.1925 146.771 14.1925H140.169V5.64021Z"></path>
        </svg>