<?xml version="1.0" encoding="utf-8"?>
<!-- Generator: Adobe Illustrator 27.4.0, SVG Export Plug-In . SVG Version: 6.00 Build 0)  -->
<svg version="1.1" id="Layer_1" xmlns="http://www.w3.org/2000/svg" xmlns:xlink="http://www.w3.org/1999/xlink" x="0px" y="0px"
	 width="670px" height="150px" viewBox="0 0 670 150" style="enable-background:new 0 0 670 150;" xml:space="preserve">
<path d="M74.9,116.3c-21.7,0-40.2-19.7-40.2-41.2c0-21.4,18.1-41.5,40.1-41.5c14.4,0,24.8,7,33.3,17.9h10.6
	c-3.2-5.7-6.6-11-11.8-15.1C97.9,29.3,86.4,25,74.9,25C47.4,25,25,47.7,25,75.1C25,102.5,47.7,125,75,125c11.2,0,22.1-4.1,30.9-11
	c5.5-4.4,9.4-10.2,13.1-16h-10.6C100,108.9,89.3,116.3,74.9,116.3z M185,64c-6.7-8.6-15.7-14-27-14c-20.2,0-36.7,16.4-36.7,36.5
	s16.7,36.7,36.7,36.7c11.7,0,19.8-4.9,27-13.9v12.2h8.8V51.7H185C185,51.7,185,64,185,64z M157.5,115.1c-15.4,0-27.6-13.4-27.6-28.5
	c0-15,12.1-28.5,27.6-28.5c15.4,0,27.4,13.5,27.4,28.5C185,101.7,172.9,115.1,157.5,115.1z M204.3,27h9.4v94.5h-9.4V27z
	 M249.1,110.4l-23.7-58.8h-9.3l28.5,69.8h9.5l28.4-69.8h-9.1L249.1,110.4z M286.3,51.7h9.4v69.8h-9.4V51.7z M286.3,27h9.4v15.7h-9.4
	V27z M336,50c-8.8,0-15.1,4.7-20.9,10.9v-9.1h-8.7v69.8h9.2V79c-0.1-11.2,9.2-20.9,20.5-20.9c14.2,0,21.3,12.3,21.3,25v38.5h8.7
	V83.1C366.2,64.9,355.6,50,336,50z M453.3,27l-42.6,54.2V27h-9.2v94.5h9.2v-26l12.1-15l30.8,41h11.7l-36.6-48.5l36.6-46H453.3z
	 M468.6,27h9.1v94.5h-9.1V27z M553.5,69.3C547.1,57.4,534.4,50,521,50c-20,0-36.9,16.7-36.9,36.7c0,20.2,17.1,36.5,37.1,36.5
	c9.5,0,18.9-3.8,25.8-10.4c4.2-4,6.7-8.9,8.9-14.1h-9.8c-5,9.7-13.7,16.4-25,16.4c-6.9,0-13.6-2.8-18.8-7.5
	c-5.3-4.8-7.6-10.7-8.6-17.7h64.4C558.1,82.6,557.1,75.6,553.5,69.3z M494,81.8c2.8-13.1,13.1-23.8,27.2-23.8
	c11.9,0,24.6,7.3,27.4,23.8H494z M564.9,51.7h9.2v69.8h-9.2V51.7z M564.9,27h9.2v16h-9.2V27z M614.7,50c-9,0-15.3,4.7-21.2,10.9
	v-9.1h-8.8v69.8h9.3V79c-0.1-11.3,9.5-20.9,20.9-20.9c14.1,0,21.6,12.3,21.6,25v38.5h8.7V83.1C645,64.9,634.3,50,614.7,50z"/>
</svg>
