<?xml version="1.0" encoding="UTF-8" standalone="no"?>
<svg
   xmlns:dc="http://purl.org/dc/elements/1.1/"
   xmlns:cc="http://creativecommons.org/ns#"
   xmlns:rdf="http://www.w3.org/1999/02/22-rdf-syntax-ns#"
   xmlns:svg="http://www.w3.org/2000/svg"
   xmlns="http://www.w3.org/2000/svg"
   width="90.484375"
   height="37.161423"
   viewBox="0 0 23.940657 9.8322934"
   version="1.1"
   id="svg8">
  <g
     id="g126">
    <path
       style="fill:#a82342;fill-opacity:1;fill-rule:nonzero;stroke:none;stroke-width:0.352777"
       d="M 22.158855,7.15752 11.608594,9.7 1.059713,7.15752 Z m 0,0"
       id="path5250" />
    <g
       id="g120">
      <path
         style="fill:#283545;fill-opacity:1;fill-rule:nonzero;stroke:none;stroke-width:0.352777"
         d="m 22.648059,0.70693005 c 0,0.33071995 0.265963,0.57877005 0.581533,0.57877005 0.31557,0 0.578774,-0.2480501 0.578774,-0.57877005 0,-0.3266 -0.263204,-0.57464 -0.578774,-0.57464 -0.31557,0 -0.581533,0.24804 -0.581533,0.57464 m 0.104733,0 c 0,-0.27698999 0.206703,-0.48921 0.4768,-0.48921 0.267338,0 0.474045,0.21222001 0.474045,0.48921 0,0.28248999 -0.206707,0.49471005 -0.474045,0.49471005 -0.270097,0 -0.4768,-0.21222006 -0.4768,-0.49471005 M 23.004971,1.04592 H 23.1097 V 0.75516004 h 0.111623 L 23.404601,1.04592 h 0.111623 L 23.324676,0.74827003 c 0.09922,-0.011 0.176389,-0.062 0.176389,-0.18328 0,-0.12953997 -0.07579,-0.19292998 -0.235645,-0.19292998 H 23.004971 Z M 23.1097,0.45612005 h 0.139185 c 0.07028,0 0.147447,0.0138001 0.147447,0.10335001 0,0.10748999 -0.08406,0.11162998 -0.177764,0.11162998 H 23.1097 Z m 0,0"
         id="path5252" />
      <path
         id="path5268"
         style="fill:#283545;fill-opacity:1;fill-rule:nonzero;stroke:none;stroke-width:0.352777"
         d="m 17.663693,5.6582199 h 1.02113 V 1.7886901 h -1.02113 z m 0,0 m 0.0083,-5.52592985 h 1.004591 V 1.1382501 h -1.004591 z m 0,0 m 2.020203,5.52592985 h 0.970139 V 3.5346601 c 0,-1.05282 0.389985,-1.14791 0.615985,-1.14791 0.294901,0 0.580153,0.19982 0.580153,0.92054 v 2.3509298 h 0.970139 V 2.98758 c 0,-1.0638499 -0.633899,-1.2884699 -1.098296,-1.2884699 -0.416168,0 -0.804774,0.24116 -1.067981,0.67111 v -0.58153 h -0.970139 z m 0,0 m -13.856173,0 H 6.806132 V 1.7886901 H 5.835993 V 3.99355 c 0,0.6793701 -0.199817,1.0665999 -0.63803,1.0665999 -0.424438,0 -0.609096,-0.3169499 -0.609096,-0.80064 V 1.7886901 H 3.618728 V 4.36699 c 0,1.09279 0.538815,1.3628802 1.141017,1.3628802 0.509874,0 0.8598958,-0.2948901 1.076248,-0.6614502 z m 0,0 M 17.028418,1.7156501 c -0.07993,-0.008 -0.115753,-0.008 -0.16812,-0.008 -0.450617,0 -0.756542,0.3073 -1.056953,1.0583301 V 1.7889501 H 14.834581 V 5.65848 h 0.968764 V 3.5900501 c 0,-0.4519999 0.336239,-0.82407 0.751028,-0.82407 0.139182,0 0.256318,0.0207 0.431327,0.1212699 z m 0,0 m -6.536034,0.2825 c -0.343132,-0.23289 -0.7496522,-0.29904 -1.0886512,-0.29904 -1.1106988,0 -1.8658628,0.83234 -1.8658628,2.0932499 0,1.1864901 0.7344939,1.9540501 1.799717,1.9540501 0.3899858,0 0.662838,-0.0372 0.990812,-0.2549401 l 0.101974,-0.50849 c -0.283877,0.20808 -0.485069,0.24667 -0.7565421,0.24667 -0.653193,0 -1.034909,-0.5167699 -1.034909,-1.5103298 0,-1.0018401 0.3362431,-1.5695901 0.865409,-1.5930101 0.4437279,-0.0193 0.6518101,0.19568 0.8268231,0.35828 z m 0,0 m 1.389063,1.32843 c 0.02618,-0.75655 0.24529,-1.29536 0.673862,-1.29536 0.377581,0 0.564995,0.51814 0.580154,1.29536 z M 14.105601,3.73585 c 0.0069,-0.1529598 0.0069,-0.1942999 0.0069,-0.2907599 0,-1.1231 -0.609092,-1.76114 -1.564076,-1.76114 -1.028016,0 -1.732192,0.76757 -1.732192,1.9954 0,1.30776 0.717956,2.0835999 1.83417,2.0835999 0.423058,0 0.746894,-0.0896 1.163062,-0.3638 l 0.07304,-0.52504 c -0.327971,0.26734 -0.615982,0.3638 -0.915018,0.3638 -0.702797,0 -1.090026,-0.58015 -1.090026,-1.50206 z m 0,0 M 0.132292,5.6582199 H 3.009636 V 5.1166501 H 1.277444 V 3.0247799 h 1.44005 V 2.4832201 H 1.277444 V 0.67385004 H 2.9614041 V 0.13229005 H 0.132292 Z m 0,0" />
    </g>
  </g>
</svg>
