<?xml version="1.0" encoding="UTF-8" standalone="no"?>
<svg
   xmlns:dc="http://purl.org/dc/elements/1.1/"
   xmlns:cc="http://creativecommons.org/ns#"
   xmlns:rdf="http://www.w3.org/1999/02/22-rdf-syntax-ns#"
   xmlns:svg="http://www.w3.org/2000/svg"
   xmlns="http://www.w3.org/2000/svg"
   version="1.1"
   viewBox="0 0 6365.99 1070.31"
   data-name="Layer 1"
   id="Layer_1">
  <metadata
     id="metadata979">
    <rdf:RDF>
      <cc:Work
         rdf:about="">
        <dc:format>image/svg+xml</dc:format>
        <dc:type
           rdf:resource="http://purl.org/dc/dcmitype/StillImage" />
        <dc:title>
		logo_MF
	</dc:title>
      </cc:Work>
    </rdf:RDF>
  </metadata>
  <defs
     id="defs900">
    <style
       id="style898">
			.cls-1{fill:#fff;}
		</style>
  </defs>
  <title
     id="title902">
		logo_MF
	</title>
  <polygon
     style="fill:#000000"
     id="polygon904"
     points="554.49 675.87 483.16 675.87 483.16 385.4 273.04 628.91 71.47 386.02 71.47 675.87 0 675.87 0 300.51 82.93 300.51 273.65 527.08 466.3 300.51 554.49 300.51 554.49 675.87"
     class="cls-1" />
  <polygon
     style="fill:#000000"
     id="polygon906"
     points="2570.38 357.57 2191.71 357.57 2191.71 456.94 2426.83 456.94 2426.83 512.74 2191.71 512.74 2191.71 675.87 2116.09 675.87 2116.09 300.51 2570.5 300.51 2570.38 357.57"
     class="cls-1" />
  <polygon
     style="fill:#000000"
     id="polygon908"
     points="4191.02 357.57 3970.08 357.57 3970.08 675.87 3894.34 675.87 3894.34 357.57 3672.93 357.57 3672.93 300.51 4191.02 300.51 4191.02 357.57"
     class="cls-1" />
  <path
     style="fill:#000000"
     id="path910"
     transform="translate(-2.08 -5.73)"
     d="M4507,300.32c-173.77,0-311.42,81.63-311.42,193.25s140.76,193.19,312,193.19S4818.91,606,4818.91,493.57,4680.62,300.32,4507,300.32Zm.49,326c-131.45,0-234.23-57.49-234.23-132.76,0-75.44,102.78-132.71,233.84-132.71,130.77,0,234.14,55.79,234.14,132.71S4639,626.33,4507.49,626.33Z"
     class="cls-1" />
  <path
     style="fill:#000000"
     id="path912"
     transform="translate(-2.08 -5.73)"
     d="M3366.65,300.46c-173,0-309.4,82-309.4,193.11,0,111.26,137.35,193.38,309.4,193.38,114.92,0,213.57-36.74,268.26-92.4l-58.95-40c-37.28,43.72-116.92,71.84-209.31,71.84-130.59,0-232.77-56.42-232.77-132.85,0-76.25,103.44-132.71,232.77-132.71,80.37,0,150.1,22.79,190.82,54.46l58.65-39.8C3559.91,329.36,3469.86,300.46,3366.65,300.46Z"
     class="cls-1" />
  <path
     style="fill:#000000"
     id="path914"
     transform="translate(-2.08 -5.73)"
     d="M1121,681.6h84.74L940.53,306.24H879.08L613.93,681.6h84.6L782.9,562.17h253.79ZM821.81,506.72l88-124.83,87.91,124.83Z"
     class="cls-1" />
  <path
     style="fill:#000000"
     id="path916"
     transform="translate(-2.08 -5.73)"
     d="M2970,681.6h84.54L2789.38,306.24h-61.55L2462.69,681.6h84.7l84.31-119.43h253.9ZM2670.68,506.72l87.88-124.83,87.93,124.83Z"
     class="cls-1" />
  <polygon
     style="fill:#000000"
     id="polygon918"
     points="1586.41 479.77 1806.39 300.51 1705.7 300.51 1535.92 438.75 1366.3 300.51 1265.52 300.51 1485.63 479.77 1245.74 675.87 1346.43 675.87 1535.92 520.86 1725.55 675.87 1826.37 675.87 1586.41 479.77"
     class="cls-1" />
  <path
     style="fill:#000000"
     id="path920"
     transform="translate(-2.08 -5.73)"
     d="M4892.06,304.83V681.6h75.72V531.26H5175l149,150.34H5414L5264.83,529.73c67,.08,138.12-51.7,138.12-111.6s-62.43-113.3-161.3-113.3H4892.06Zm75.66,58.33h284.83c31.66,0,73.32,20.43,73.32,55.79,0,42.69-42.78,56.22-80,56.22H4967.78l-.06-112Z"
     class="cls-1" />
  <path
     style="fill:#000000"
     id="path922"
     transform="translate(-2.08 -5.73)"
     d="M6202.66,741.56c-4.76-4.33-9.69-8.83-14.29-13.35,0,0-25-24.06-37-38.52-3.48-4.41-58.7-70.46-58.7-70.46l-38.58-46c-17-20.34-32.11-39.1-46.24-57.33C5996,500.52,5980.57,488.82,5985,471c4.17-17.64,68.24-99.46,98.82-136.66,0,0,24.89-29.83,60.48-72.36v.39c66.09-78.68,169.83-201,223.81-256.65,0,0-56.45,3.36-116.19,66.59-29.41,31.25-296.4,303.2-305.7,311.31-13.88,12.2-25.4,8.27-35.58-1.49-7.94-7.64-34.32-42.18-49-64.79-19.25-29.74-40.05-59.22-55.2-91.19-.82-1.92-1.72-3.31-2.34-4.61l-.05-.19-.08-.2-1.11-2c-4.31-8.79-6.26-12.39-7.65-18.68-1.31-5.6-2.59-14.13-5.19-31.27l-.81-6.1-.2-.18v-.3c-3.14-38.87-12.82-67.74-28.69-85.95-13.95-16.37-30-19.59-35.43-20.16a3,3,0,0,0-.59,0,39.39,39.39,0,0,0-6.74-.21c-21,2.9-38.62,15.74-52.54,38.44a106.92,106.92,0,0,0-6.55,14.74,150.44,150.44,0,0,0-7.76,31.25c-3.07,24.82,1.57,46.13,13.76,63.4,7.11,8.8,19.52,20.1,31.6,31.12,8.42,7.75,16.32,14.86,22.38,21.05,27.15,28,48.19,60.72,70,92.56,16.44,24.17,35.21,47,51.53,71.42,3.64,5.89,7.1,11.22,9.91,16.12a8,8,0,0,1,1.08,1.85h0c12,19.8,16.16,33,.29,56.16-6.74,10-36.52,47.07-52.3,67.22q-35.94,46.06-71.13,92.33c-44,57.65-86.88,116.26-124.76,177.61-20.22,32.58-49.12,70.65-47.14,110.91,3.32,69,82.7,72.61,126.93,38.39,18.42-14.18,28.54-28.24,16.1-37.67-23.42-17.7-18.94-44.87,17.56-113.22,13.27-25.39,109.42-155.07,186.33-257.32,0,0,8.56-11.43,8.37-11.13,3.41-4.55,9.16-10.76,18-10.76,8.5-.09,14.82,10.76,20.43,18,41.87,55.35,58.63,78.63,95.27,136.21,10.59,16.57,25.28,45.35,34.71,64.46a2,2,0,0,1-.34-.18l.17.13a383.21,383.21,0,0,1,28.05,62c7.4,20.37,15.55,43.32,36.32,59.61a63,63,0,0,0,32.08,12.5c.28,0,.42,0,.6,0,37.8,3.22,70.47-26,74.26-66.37a65.81,65.81,0,0,0,.39-8.56c-.56-23-9.61-45-27.61-66.72C6219.22,756.93,6211.2,749.47,6202.66,741.56Z"
     class="cls-1" />
  <path
     style="fill:#000000"
     id="path924"
     transform="translate(-2.08 -5.73)"
     d="M608.27,1071.56H579.61V868H521.33V843H666.88v25H608.27Z"
     class="cls-1" />
  <path
     style="fill:#000000"
     id="path926"
     transform="translate(-2.08 -5.73)"
     d="M825.46,1071.56H796.81V961.44H717v110.12H688.38V843H717v93.48h79.78V843h28.65Z"
     class="cls-1" />
  <path
     style="fill:#000000"
     id="path928"
     transform="translate(-2.08 -5.73)"
     d="M856.73,843H976.88v25h-91.5v71.71h86.29v25H885.38v81.95h95.41v25H856.73Z"
     class="cls-1" />
  <path
     style="fill:#000000"
     id="path930"
     transform="translate(-2.08 -5.73)"
     d="M1086.3,843h48.19l46.56,181.19h.66L1228.27,843h48.19v228.57h-28.65V871.8h-.65l-51.45,199.76h-28.66L1115.6,871.8H1115v199.76H1086.3Z"
     class="cls-1" />
  <path
     style="fill:#000000"
     id="path932"
     transform="translate(-2.08 -5.73)"
     d="M1360.47,843h38.43l62.52,228.57h-30l-16.61-62.74h-74.24l-17.26,62.74H1293.4Zm-14,142.78H1409l-29.63-110.44h-.65Z"
     class="cls-1" />
  <path
     style="fill:#000000"
     id="path934"
     transform="translate(-2.08 -5.73)"
     d="M1477.71,843h28.65V953.75h.65L1587.44,843h31.91L1549,938.39l76.19,133.17H1593.3l-62.84-110.12-24.1,32.33v77.79h-28.65Z"
     class="cls-1" />
  <path
     style="fill:#000000"
     id="path936"
     transform="translate(-2.08 -5.73)"
     d="M1640.52,843h120.16v25h-91.5v71.71h86.29v25h-86.29v81.95h95.4v25H1640.52Z"
     class="cls-1" />
  <path
     style="fill:#000000"
     id="path938"
     transform="translate(-2.08 -5.73)"
     d="M1790,968.16h79.46v25H1790Z"
     class="cls-1" />
  <path
     style="fill:#000000"
     id="path940"
     transform="translate(-2.08 -5.73)"
     d="M1903.3,843H1932v160.7c0,33.62,11.07,49.3,39.4,49.3,30.61,0,39.72-17.29,39.72-49.3V843h28.66v160.7c0,43.86-22.79,72.35-68.38,72.35-46.57,0-68.06-25.29-68.06-72.35Z"
     class="cls-1" />
  <path
     style="fill:#000000"
     id="path942"
     transform="translate(-2.08 -5.73)"
     d="M2068.4,843h59.26c20.19,0,72,0,72,65.63,0,42.57-27.67,66.26-67.08,66.26h-35.49v96.68H2068.4Zm28.65,108.85h34.19c20.84,0,38.43-14.09,38.43-44.5,0-25-12.05-41.3-40.38-41.3h-32.24Z"
     class="cls-1" />
  <path
     style="fill:#000000"
     id="path944"
     transform="translate(-2.08 -5.73)"
     d="M2449.71,957.28c0,57.62-10.75,118.76-74.9,118.76s-74.89-61.14-74.89-118.76,10.74-118.77,74.89-118.77S2449.71,899.66,2449.71,957.28Zm-119.84,0c0,52.82,5.21,95.71,44.94,95.71s44.94-42.89,44.94-95.71-5.21-95.71-44.94-95.71S2329.87,904.46,2329.87,957.28Z"
     class="cls-1" />
  <path
     style="fill:#000000"
     id="path946"
     transform="translate(-2.08 -5.73)"
     d="M2477.72,843h120.15v25h-91.5v71.71h86.29v25h-86.29v106.92h-28.65Z"
     class="cls-1" />
  <path
     style="fill:#000000"
     id="path948"
     transform="translate(-2.08 -5.73)"
     d="M2701.09,843h48.19l46.57,181.19h.65L2843.06,843h48.2v228.57H2862.6V871.8H2862l-51.45,199.76h-28.65L2730.39,871.8h-.65v199.76h-28.65Z"
     class="cls-1" />
  <path
     style="fill:#000000"
     id="path950"
     transform="translate(-2.08 -5.73)"
     d="M2975.27,843h38.43l62.52,228.57h-30l-16.61-62.74h-74.24l-17.26,62.74h-30Zm-14,142.78h62.52l-29.63-110.44h-.66Z"
     class="cls-1" />
  <path
     style="fill:#000000"
     id="path952"
     transform="translate(-2.08 -5.73)"
     d="M3092.5,843h28.66V953.75h.65L3202.24,843h31.92l-70.35,95.4,76.2,133.17H3208.1l-62.85-110.12-24.09,32.33v77.79H3092.5Z"
     class="cls-1" />
  <path
     style="fill:#000000"
     id="path954"
     transform="translate(-2.08 -5.73)"
     d="M3255.32,843h120.16v25H3284v71.71h86.3v25H3284v81.95h95.41v25H3255.32Z"
     class="cls-1" />
  <path
     style="fill:#000000"
     id="path956"
     transform="translate(-2.08 -5.73)"
     d="M3404.78,968.16h79.46v25h-79.46Z"
     class="cls-1" />
  <path
     style="fill:#000000"
     id="path958"
     transform="translate(-2.08 -5.73)"
     d="M3518.1,843h28.66v160.7c0,33.62,11.06,49.3,39.4,49.3,30.61,0,39.73-17.29,39.73-49.3V843h28.64v160.7c0,43.86-22.79,72.35-68.37,72.35-46.56,0-68.06-25.29-68.06-72.35Z"
     class="cls-1" />
  <path
     style="fill:#000000"
     id="path960"
     transform="translate(-2.08 -5.73)"
     d="M3683.18,843h59.27c20.2,0,72,0,72,65.63,0,42.57-27.68,66.26-67.08,66.26h-35.49v96.68h-28.67Zm28.67,108.85H3746c20.84,0,38.42-14.09,38.42-44.5,0-25-12.05-41.3-40.37-41.3h-32.24Z"
     class="cls-1" />
  <path
     style="fill:#000000"
     id="path962"
     transform="translate(-2.08 -5.73)"
     d="M3951.82,843h38.44l62.52,228.57h-30l-16.61-62.74H3932l-17.27,62.74h-29.95Zm-14,142.78h62.52l-29.63-110.44h-.65Z"
     class="cls-1" />
  <path
     style="fill:#000000"
     id="path964"
     transform="translate(-2.08 -5.73)"
     d="M4069.06,843h75.21c36.47,0,59.59,21.13,59.59,57.31,0,25-8.79,51.22-35.81,57.62v.64c20.18,2.24,31.58,18.56,32.89,38.09l2,39.05c1.3,25.3,5.53,31.69,12.37,35.86h-34.52c-4.88-4.8-7.16-21.77-7.81-33l-2-35.53c-2.28-31.38-19.87-33.29-34.52-33.29h-38.75v101.79h-28.65Zm28.65,103.72h28.34c16.92,0,47.85,0,47.85-44.17,0-22.41-15.29-36.5-42-36.5h-34.19Z"
     class="cls-1" />
  <path
     style="fill:#000000"
     id="path966"
     transform="translate(-2.08 -5.73)"
     d="M4303.18,1071.56h-28.65V868h-58.3V843h145.56v25h-58.61Z"
     class="cls-1" />
  <path
     style="fill:#000000"
     id="path968"
     transform="translate(-2.08 -5.73)"
     d="M4383.27,843h28.67v228.57h-28.67Z"
     class="cls-1" />
  <path
     style="fill:#000000"
     id="path970"
     transform="translate(-2.08 -5.73)"
     d="M4548.38,902.21c0-24-8.8-40.64-36.15-40.64-24.11,0-38.43,12.8-38.43,37.12,0,64.35,109.74,25.94,109.74,109.48,0,52.83-39.4,67.87-72.3,67.87-54.37,0-70.33-27.53-70.33-76.19h28.65c0,25.62,1.63,53.14,43.64,53.14,22.8,0,40.39-16,40.39-40.33,0-64.67-109.75-27.22-109.75-111.08,0-21.13,9.12-63.07,68.06-63.07,44.29,0,64.48,21.77,65.13,63.7Z"
     class="cls-1" />
  <path
     style="fill:#000000"
     id="path972"
     transform="translate(-2.08 -5.73)"
     d="M4676.67,1071.56H4648V868h-58.28V843h145.55v25h-58.62Z"
     class="cls-1" />
  <path
     style="fill:#000000"
     id="path974"
     transform="translate(-2.08 -5.73)"
     d="M4855.45,902.21c0-24-8.79-40.64-36.15-40.64-24.11,0-38.43,12.8-38.43,37.12,0,64.35,109.75,25.94,109.75,109.48,0,52.83-39.4,67.87-72.31,67.87-54.37,0-70.33-27.53-70.33-76.19h28.65c0,25.62,1.64,53.14,43.64,53.14,22.8,0,40.39-16,40.39-40.33,0-64.67-109.75-27.22-109.75-111.08,0-21.13,9.12-63.07,68.07-63.07,44.28,0,64.47,21.77,65.12,63.7Z"
     class="cls-1" />
</svg>
