<?xml version="1.0" encoding="UTF-8" standalone="no"?>
<!-- Created with Inkscape (http://www.inkscape.org/) -->

<svg
   xmlns:dc="http://purl.org/dc/elements/1.1/"
   xmlns:cc="http://creativecommons.org/ns#"
   xmlns:rdf="http://www.w3.org/1999/02/22-rdf-syntax-ns#"
   xmlns:svg="http://www.w3.org/2000/svg"
   xmlns="http://www.w3.org/2000/svg"
   version="1.1"
   width="800"
   height="200"
   id="svg2">
  <defs
     id="defs4" />
  <metadata
     id="metadata7">
    <rdf:RDF>
      <cc:Work
         rdf:about="">
        <dc:format>image/svg+xml</dc:format>
        <dc:type
           rdf:resource="http://purl.org/dc/dcmitype/StillImage" />
        <dc:title></dc:title>
      </cc:Work>
    </rdf:RDF>
  </metadata>
  <g
     transform="translate(0,-852.36218)"
     id="layer1">
    <path
       d="m 22.223352,1033.051 c 0.186009,0 0,-161.82654 0,-161.82654 l 35.897018,0 61.84997,85.23798 61.85242,-85.23798 36.17357,0 c 0,0 -0.186,161.82654 0,161.82654 l -37.75564,0 -0.004,-91.05065 -60.26646,83.05235 -60.266452,-83.05235 0.0015,91.05065 z"
       id="path3951-6"
       style="fill:#000000;stroke:none" />
    <path
       d="m 603.88731,871.21643 61.83339,77.24594 -67.35753,84.58843 52.11108,0 37.65625,-49.99349 37.65624,49.99349 52.11111,0 -66.31591,-84.58843 60.79177,-77.24594 -52.11111,0 -32.1321,42.65099 -32.1321,-42.65099 z"
       id="path4013-2"
       style="fill:#000000;stroke:none" />
    <path
       d="m 334.89109,864.99047 c -27.61236,-0.70549 -55.17121,12.03439 -72.20515,36.3903 -27.25431,38.96946 -18.51291,93.30558 19.74881,121.32403 38.26171,28.0184 92.43546,18.7833 119.68977,-20.1862 l -30.17563,-21.1068 c -15.93441,22.7837 -45.67483,27.7754 -67.76282,11.6007 -22.08801,-16.17468 -27.2589,-47.74116 -11.3245,-70.5249 15.9344,-22.78374 45.67482,-27.75236 67.76282,-11.57768 2.81068,2.05821 5.42058,4.41099 7.75682,7.04328 l 27.52865,-24.44434 c -4.06386,-4.57883 -8.58027,-8.70345 -13.51114,-12.31423 -14.34814,-10.50691 -30.94021,-15.78086 -47.50763,-16.20416 z"
       id="path4070"
       style="font-size:medium;font-style:normal;font-variant:normal;font-weight:normal;font-stretch:normal;text-indent:0;text-align:start;text-decoration:none;line-height:normal;letter-spacing:normal;word-spacing:normal;text-transform:none;direction:ltr;block-progression:tb;writing-mode:lr-tb;text-anchor:start;baseline-shift:baseline;color:#000000;fill:#000000;fill-opacity:1;stroke:none;stroke-width:50;marker:none;visibility:visible;display:inline;overflow:visible;enable-background:accumulate;font-family:Sans;-inkscape-font-specification:Sans" />
    <path
       d="m 298.81663,955.85792 118.22642,0 c 0.82378,-19.31399 -2.57129,-34.95942 -9.73285,-47.32963 L 296.831,948.40366 c -1.97632,0.71332 -2.73431,2.12518 -2.73431,3.6783 0,1.95298 1.70781,3.77596 4.71994,3.77596 z"
       id="path4076"
       style="fill:#000000;stroke:none" />
    <path
       d="m 420.55824,871.21643 61.83339,77.24594 -67.35753,84.58843 52.11108,0 37.65625,-49.99349 37.65624,49.99349 52.11109,0 -66.31589,-84.58843 60.79174,-77.24594 -52.11108,0 -32.1321,42.65099 -32.1321,-42.65099 z"
       id="path4013-2-4"
       style="fill:#000000;stroke:none" />
  </g>
</svg>
