<?xml version="1.0" encoding="UTF-8" standalone="no"?>
<svg
   width="262.009"
   height="48.983253"
   viewBox="0 0 262.009 48.983253"
   fill="none"
   version="1.1"
   id="svg20"
   sodipodi:docname="Nina Ricci logo.svg"
   inkscape:version="1.1.1 (3bf5ae0d25, 2021-09-20)"
   xmlns:inkscape="http://www.inkscape.org/namespaces/inkscape"
   xmlns:sodipodi="http://sodipodi.sourceforge.net/DTD/sodipodi-0.dtd"
   xmlns="http://www.w3.org/2000/svg"
   xmlns:svg="http://www.w3.org/2000/svg">
  <defs
     id="defs24" />
  <sodipodi:namedview
     id="namedview22"
     pagecolor="#ffffff"
     bordercolor="#999999"
     borderopacity="1"
     inkscape:pageshadow="0"
     inkscape:pageopacity="0"
     inkscape:pagecheckerboard="0"
     showgrid="false"
     fit-margin-top="10"
     fit-margin-right="10"
     fit-margin-bottom="10"
     fit-margin-left="10"
     inkscape:zoom="5.3333333"
     inkscape:cx="131.53125"
     inkscape:cy="24.46875"
     inkscape:window-width="1920"
     inkscape:window-height="1001"
     inkscape:window-x="-9"
     inkscape:window-y="-9"
     inkscape:window-maximized="1"
     inkscape:current-layer="svg20" />
  <path
     d="m 29.3713,11.245761 h 0.3415 c 0,0 0.6403,10e-6 1.4684,0.14408 1.9721,0.25424 2.3222,0.72881 2.3222,3.16949 v 17.71187 L 16.66768,10.398306 16.56523,10.26271 H 10 v 0.983051 h 0.341489 c 2.117261,0.1356 2.996621,0.66103 3.901581,1.65256 v 21.43218 c 0,2.4661 -0.34151,2.9407 -2.27949,3.1695 -0.85373,0.1017 -1.502564,0.1441 -1.511101,0.1441 H 10.11099 v 0.9745 h 9.92041 v -0.9745 h -0.33295 c 0,0 -0.69154,-0.0424 -1.51113,-0.1441 -1.94651,-0.2288 -2.27946,-0.7034 -2.27946,-3.1695 v -19.27118 l 18.43214,23.72878 0.111,0.1356 h 0.7428 v -24.28811 c 0,-2.44067 0.35,-2.91524 2.288,-3.16948 0.8537,-0.11017 1.5025,-0.14408 1.5111,-0.14408 h 0.3329 v -0.97457 h -9.9545 z"
     fill="#000000"
     id="path2" />
  <path
     d="m 44.8239,11.245761 h 0.3415 c 0,0 0.7598,10e-6 1.6136,0.14408 1.9123,0.24576 2.2453,0.7288 2.2453,3.21185 v 19.69491 c 0,2.4746 -0.333,2.9492 -2.2453,3.2034 -0.8538,0.1017 -1.6051,0.1441 -1.6136,0.1441 h -0.3415 v 0.9745 H 56.503 v -0.9745 h -0.3415 c 0,0 -0.7342,-0.0424 -1.5794,-0.1441 -1.9465,-0.2542 -2.2795,-0.7288 -2.2795,-3.2034 v -19.66101 c 0,-2.48305 0.333,-2.95763 2.2795,-3.21187 0.8537,-0.11017 1.5709,-0.14405 1.5794,-0.14405 H 56.503 V 10.305099 H 44.8239 Z"
     fill="#000000"
     id="path4" />
  <path
     d="m 81.3979,11.245761 h 0.3415 c 0,0 0.6489,10e-6 1.4685,0.14408 1.9806,0.25424 2.3221,0.72881 2.3221,3.16949 v 17.71187 L 68.6431,10.398306 68.5321,10.26271 h -6.5567 v 0.983051 h 0.333 c 2.1087,0.1356 2.9966,0.66103 3.9016,1.65256 v 21.43218 c 0,2.4661 -0.3415,2.9407 -2.2795,3.1695 -0.8537,0.1017 -1.5111,0.1441 -1.5111,0.1441 h -0.3415 v 0.9745 h 9.9802 v -0.9745 h -0.3415 c 0,0 -0.6916,-0.0424 -1.5111,-0.1441 -1.938,-0.2288 -2.2795,-0.7034 -2.2795,-3.1695 v -19.27118 l 18.4407,23.72878 0.1024,0.1356 h 0.7513 v -24.28811 c 0,-2.44067 0.3415,-2.91524 2.271,-3.16948 0.8537,-0.11017 1.5111,-0.14408 1.5196,-0.14408 h 0.333 v -0.97457 h -9.9461 z"
     fill="#000000"
     id="path6" />
  <path
     d="m 120.55,37.601701 c -1.144,-0.0932 -1.886,-0.2627 -2.843,-2.4068 L 107.1551,10.211864 107.0612,10 h -0.6317 L 96.62,34.305101 c -1.033,2.5423 -1.2635,3 -3.2441,3.2627 l -1.2721,0.1441 v 0.9576 h 8.4264 v -0.9746 h -0.333 c 0,0 -0.6062,0 -0.8537,-0.0678 -0.8538,-0.0932 -1.2977,-0.2712 -1.4685,-0.5762 -0.1707,-0.3051 -0.1024,-1.0763 0.444,-2.4238 l 2.0233,-4.9491 h 11.6197 l 2.501,5.9322 c 0.316,0.7373 0.384,1.2034 0.222,1.4661 -0.162,0.2627 -0.683,0.4661 -1.571,0.5678 -0.341,0 -0.854,0 -0.854,0 h -0.35 v 1 h 9.844 v -0.9746 h -0.333 c 0,0 -0.598,-0.0254 -0.871,-0.0678 z m -9.297,-9.5593 h -10.3387 l 5.0456,-12.44918 z"
     fill="#000000"
     id="path8" />
  <path
     d="m 158.106,37.517001 c -0.309,0.123 -0.64,0.1835 -0.973,0.1779 -1.819,0 -2.8,-1.1695 -5.234,-6.2373 -2.108,-4.3983 -3.09,-5.7203 -5.267,-6.4491 1.624,-0.411 3.059,-1.358 4.069,-2.6855 1.01,-1.3276 1.535,-2.95666 1.489,-4.61961 0,-1.74577 -0.717,-7.432198 -9.929,-7.432198 h -9.391 v 0.974568 h 0.341 c 0,0 0.76,10e-6 1.614,0.14408 1.912,0.25424 2.245,0.7288 2.245,3.21185 v 19.69491 c 0,2.4746 -0.333,2.9492 -2.245,3.2034 -0.854,0.1017 -1.605,0.1441 -1.614,0.1441 h -0.341 v 0.9745 h 11.858 v -0.9321 h -0.341 c 0,0 -0.914,-0.0424 -1.759,-0.1441 -1.964,-0.2543 -2.28,-0.7034 -2.28,-3.2034 v -8.5763 h 2.271 c 2.348,0 3.415,1.1187 5.703,5.9831 2.186,4.6525 3.415,7.2118 7.522,7.2118 0.93,0.0316 1.855,-0.1572 2.698,-0.5508 l 0.281,-0.1526 -0.392,-0.8474 z m -17.749,-25.62716 h 1.707 c 4.414,0 6.472,1.85594 6.472,5.83051 0,4.11865 -2.357,6.47455 -6.472,6.47455 h -1.707 z"
     fill="#000000"
     id="path10" />
  <path
     d="m 160.906,11.245761 h 0.342 c 0,0 0.76,10e-6 1.613,0.14408 1.904,0.24576 2.246,0.7288 2.246,3.21185 v 19.69491 c 0,2.4746 -0.333,2.9492 -2.246,3.2034 -0.853,0.1017 -1.605,0.1441 -1.613,0.1441 h -0.342 v 0.9745 h 11.679 v -0.9745 h -0.341 c 0,0 -0.734,-0.0424 -1.588,-0.1441 -1.938,-0.2542 -2.271,-0.7288 -2.271,-3.2034 v -19.66101 c 0,-2.54237 0.316,-2.95763 2.271,-3.21187 0.854,-0.11017 1.579,-0.14405 1.588,-0.14405 h 0.341 v -0.974572 h -11.679 z"
     fill="#000000"
     id="path12" />
  <path
     d="m 202.944,31.635601 c -1.072,1.6952 -2.555,3.0968 -4.313,4.0768 -1.758,0.98 -3.736,1.5071 -5.752,1.5333 -7.308,0 -12.029,-5.0254 -12.029,-12.805 0,-7.77969 4.379,-12.839 10.893,-12.839 8.119,0 9.852,7.79659 9.921,8.13557 l 0.06,0.27963 h 0.904 v -9.728779 h -0.973 v 0.322038 c 0,0 -0.068,0.805081 -0.145,1.186431 -0.222,1.22034 -0.623,1.22035 -0.811,1.22035 -0.696,-0.12674 -1.352,-0.41735 -1.912,-0.84746 -2.061,-1.408932 -4.507,-2.157209 -7.01,-2.144069 -8.375,0 -14.453,6.059319 -14.453,14.406789 0,8.3474 6.206,14.5508 14.752,14.5508 2.408,0.0148 4.775,-0.617 6.85,-1.8284 2.076,-1.2114 3.783,-2.9573 4.94,-5.0529 l 0.146,-0.3051 -0.854,-0.4746 z"
     fill="#000000"
     id="path14" />
  <path
     d="m 234.644,31.635601 c -1.073,1.6952 -2.556,3.0968 -4.314,4.0768 -1.758,0.98 -3.736,1.5071 -5.752,1.5333 -7.308,0 -12.029,-5.0254 -12.029,-12.805 0,-7.77969 4.38,-12.83901 10.894,-12.83901 8.119,0 9.852,7.79659 9.92,8.13558 l 0.06,0.27963 h 0.853 v -9.72878 h -0.973 v 0.322038 c 0,0 -0.077,0.805082 -0.145,1.186432 -0.23,1.22034 -0.623,1.22034 -0.854,1.22034 -0.697,-0.12513 -1.353,-0.4159 -1.912,-0.84745 -2.061,-1.407944 -4.507,-2.156123 -7.009,-2.14407 -8.375,0 -14.463,6.05932 -14.463,14.40679 0,8.3474 6.207,14.5508 14.753,14.5508 2.409,0.0145 4.777,-0.6173 6.854,-1.8286 2.076,-1.2113 3.785,-2.957 4.945,-5.0527 l 0.145,-0.3051 -0.854,-0.4831 z"
     fill="#000000"
     id="path16" />
  <path
     d="m 250.088,11.423721 c 0.853,-0.11017 1.579,-0.14405 1.579,-0.14405 h 0.342 v -0.974572 h -11.68 v 0.940662 h 0.342 c 0,0 0.768,10e-6 1.614,0.14408 1.912,0.24576 2.253,0.7288 2.253,3.21185 v 19.69491 c 0,2.4746 -0.341,2.9492 -2.245,3.2034 -0.854,0.1017 -1.614,0.1441 -1.622,0.1441 h -0.342 v 0.9745 h 11.68 v -0.9745 h -0.342 c 0,0 -0.726,-0.0424 -1.579,-0.1441 -1.938,-0.2542 -2.28,-0.7288 -2.28,-3.2034 v -19.66101 c 0,-2.54237 0.316,-2.95763 2.28,-3.21187 z"
     fill="#000000"
     id="path18" />
</svg>
