<?xml version="1.0" encoding="UTF-8" standalone="no"?>
<svg
   id="Layer_1"
   data-name="Layer 1"
   viewBox="0 0 1248.41 219.7182"
   version="1.1"
   sodipodi:docname="Rimmel logo.svg"
   width="1248.41"
   height="219.7182"
   inkscape:version="1.1.1 (3bf5ae0d25, 2021-09-20)"
   xmlns:inkscape="http://www.inkscape.org/namespaces/inkscape"
   xmlns:sodipodi="http://sodipodi.sourceforge.net/DTD/sodipodi-0.dtd"
   xmlns="http://www.w3.org/2000/svg"
   xmlns:svg="http://www.w3.org/2000/svg"
   xmlns:rdf="http://www.w3.org/1999/02/22-rdf-syntax-ns#"
   xmlns:cc="http://creativecommons.org/ns#"
   xmlns:dc="http://purl.org/dc/elements/1.1/">
  <sodipodi:namedview
     id="namedview13"
     pagecolor="#ffffff"
     bordercolor="#999999"
     borderopacity="1"
     inkscape:pageshadow="0"
     inkscape:pageopacity="0"
     inkscape:pagecheckerboard="0"
     showgrid="false"
     fit-margin-top="10"
     fit-margin-right="10"
     fit-margin-bottom="10"
     fit-margin-left="10"
     inkscape:zoom="1.0550223"
     inkscape:cx="625.10526"
     inkscape:cy="110.4242"
     inkscape:window-width="1920"
     inkscape:window-height="1001"
     inkscape:window-x="-9"
     inkscape:window-y="-9"
     inkscape:window-maximized="1"
     inkscape:current-layer="Layer_1" />
  <defs
     id="defs4">
    <style
       id="style2">.cls-1{fill:#151210}.cls-2{fill:#a6192e}</style>
  </defs>
  <title
     id="title6">Artboard 1</title>
  <path
     class="cls-1"
     d="m 228.04,10.6 h 27.14 V 143.75 H 228.04 Z M 516.23,10.64 440.16,94.3 359.9,10.64 h -9.75 v 133.23 h 6.42 V 39.81 l 71.68,78.85 71.69,-78.85 v 104.06 h 25.6 V 10.64 Z m 263.46,0 L 703.6,94.3 623.36,10.64 h -9.76 v 133.23 h 6.41 V 39.81 l 71.69,78.85 71.68,-78.85 v 104.06 h 25.6 V 10.64 Z m 91.04,0 v 133.23 h 147.94 v -6.52 H 897.92 V 76.07 h 72.34 V 69.93 H 897.92 V 15.87 h 113.38 v -5.23 z m 222.97,0 v 133.23 h 144.71 v -6.52 H 1120.5 V 10.64 Z M 91.44,80 c 22.91,0 28.29,-18 28.29,-32.23 0,-13.89 -5.37,-32.68 -27.28,-32.68 H 37.52 V 80 Z M 10,10 h 82.79 c 35.7,0 53.21,13.91 53.21,37.29 0,18.87 -12.83,34.26 -35,37.74 l 45.45,58.87 h -29.3 L 81.7,85.29 H 37.52 V 143.9 H 10 Z"
     id="path8" />
  <path
     class="cls-2"
     d="m 1201.82,167.16 -0.3,0.3 v 41.05 l 0.3,0.3 h 5.35 l 0.3,-0.3 v -31.83 l 24.39,31.83 0.6,0.3 h 5.65 l 0.3,-0.3 v -41.05 l -0.3,-0.3 h -5.36 l -0.3,0.3 v 31.83 l -24.39,-31.83 -0.6,-0.3 z m -52.24,5.35 a 15.47,15.47 0 1 1 -15.17,15.49 15.3,15.3 0 0 1 15.17,-15.47 m 0,-6.25 a 21.72,21.72 0 1 0 22,21.71 21.9,21.9 0 0 0 -22,-21.71 m -80,6.84 h 8.33 c 8.92,0 15.17,6.54 15.17,14.87 0,8.33 -6.25,14.87 -15.17,14.87 h -8.33 z m -5.65,-5.95 -0.3,0.3 v 41.05 l 0.3,0.3 h 14 c 12.79,0 22,-9.22 22,-20.82 0,-11.6 -9.22,-20.82 -22,-20.82 z m -69,0 -0.3,0.3 v 41.05 l 0.3,0.3 h 5.36 l 0.3,-0.3 v -31.84 l 24.41,31.83 0.59,0.3 h 5.65 l 0.3,-0.3 v -41.05 l -0.3,-0.3 h -5.35 l -0.3,0.3 v 31.83 l -24.39,-31.83 -0.6,-0.3 z m -52.24,5.35 A 15.47,15.47 0 1 1 927.52,188 15.3,15.3 0 0 1 942.69,172.53 m 0,-6.25 a 21.72,21.72 0 1 0 22,21.71 21.9,21.9 0 0 0 -22,-21.71 m -71.73,0.89 -0.24,0.24 v 41.17 l 0.24,0.24 h 25.11 l 0.24,-0.24 v -5.41 l -0.24,-0.3 h -19.4 V 167.4 l -0.24,-0.24 z"
     id="path10" />
  <metadata
     id="metadata830">
    <rdf:RDF>
      <cc:Work
         rdf:about="">
        <dc:title>Artboard 1</dc:title>
      </cc:Work>
    </rdf:RDF>
  </metadata>
</svg>
