<?xml version="1.0" encoding="UTF-8" standalone="no"?>
<svg
   width="499.728"
   height="72.872002"
   viewBox="0 0 499.728 72.872002"
   version="1.1"
   id="svg8"
   sodipodi:docname="svgexport-2 (1).svg"
   inkscape:version="1.1.1 (3bf5ae0d25, 2021-09-20)"
   xmlns:inkscape="http://www.inkscape.org/namespaces/inkscape"
   xmlns:sodipodi="http://sodipodi.sourceforge.net/DTD/sodipodi-0.dtd"
   xmlns="http://www.w3.org/2000/svg"
   xmlns:svg="http://www.w3.org/2000/svg">
  <defs
     id="defs12" />
  <sodipodi:namedview
     id="namedview10"
     pagecolor="#ffffff"
     bordercolor="#999999"
     borderopacity="1"
     inkscape:pageshadow="0"
     inkscape:pageopacity="0"
     inkscape:pagecheckerboard="0"
     showgrid="false"
     fit-margin-top="10"
     fit-margin-right="10"
     fit-margin-bottom="10"
     fit-margin-left="10"
     inkscape:zoom="2.7"
     inkscape:cx="250.18519"
     inkscape:cy="36.481481"
     inkscape:window-width="1920"
     inkscape:window-height="1001"
     inkscape:window-x="-9"
     inkscape:window-y="-9"
     inkscape:window-maximized="1"
     inkscape:current-layer="svg8" />
  <g
     class="logo__paths"
     fill-rule="nonzero"
     fill="#0a0a0a"
     id="g6"
     transform="translate(10,10)">
    <path
       d="m 31.844,1.468 -12.836,40.6 H 18.88 L 6.052,1.468 H 0 l 16.468,48.084 h 4.96 L 37.628,1.468 Z M 49.732,1.46 H 55.06 V 49.544 H 49.732 Z M 97.34,1.468 77.392,24.172 H 77.268 V 1.468 H 71.92 v 48.084 h 5.348 V 25.188 h 0.124 l 20.072,24.364 h 7.384 L 83.308,24.484 104.524,1.468 Z m 12.06,0 v 4.86 h 14.484 v 43.224 h 5.34 V 6.328 h 14.492 v -4.86 z m 63.46,44.116 c -13.412,0 -18.56,-12.152 -18.56,-20.084 0,-9.708 5.284,-20.076 18.56,-20.076 13.284,0 18.56,10.368 18.56,20.076 -0.004,7.936 -5.152,20.084 -18.56,20.084 m 0,-45.012 c -13.792,0 -24.28,10.424 -24.28,24.932 0,15.416 10.236,24.94 24.28,24.94 13.788,0 24.28,-10.424 24.28,-24.94 0,-15.408 -10.236,-24.932 -24.28,-24.932 m 40.084,23.532 V 6.328 h 9.224 c 5.524,0 10.864,1.916 10.864,9.012 0,5.756 -4.256,8.76 -10.556,8.76 h -9.532 z m 25.8,-9.528 c 0,-6.268 -3.556,-13.112 -16.324,-13.112 h -14.812 v 48.092 h 5.336 V 28.96 h 9.344 l 11.756,20.596 h 6.544 L 227.88,28.448 c 5.276,-1.28 10.864,-5.236 10.864,-13.872 z m 83.688,9.528 V 6.328 h 9.216 c 5.524,0 10.864,1.916 10.864,9.012 0,5.756 -4.256,8.76 -10.552,8.76 h -9.528 z m 25.8,-9.528 c 0,-6.268 -3.56,-13.112 -16.324,-13.112 h -14.82 v 48.092 h 5.344 V 28.96 h 9.336 l 11.748,20.596 h 6.552 L 337.36,28.448 c 5.276,-1.28 10.872,-5.236 10.872,-13.872 z m 32.332,31.008 c -13.408,0 -18.56,-12.152 -18.56,-20.084 0,-9.708 5.284,-20.076 18.56,-20.076 13.284,0 18.56,10.368 18.56,20.076 -0.004,7.936 -5.152,20.084 -18.56,20.084 m 0,-45.012 c -13.784,0 -24.272,10.424 -24.272,24.932 0,15.416 10.228,24.94 24.272,24.94 13.804,0 24.28,-10.424 24.28,-24.94 0,-15.408 -10.228,-24.932 -24.28,-24.932 m 40.44,0.9 h -5.336 v 48.08 h 27.716 V 44.68 h -22.38 z m 58.724,4.852 V 1.472 H 452.78 v 48.076 h 5.336 V 27.296 h 20.976 V 22.448 H 458.116 V 6.324 Z M 276.996,51.072 c -13.496,0 -24.484,-11.056 -24.484,-24.632 0,-13.584 10.988,-24.64 24.484,-24.64 13.504,0 24.492,11.056 24.492,24.64 0,13.576 -10.988,24.632 -24.492,24.632 m 0,-51.072 c -14.516,0 -26.288,11.844 -26.288,26.44 0,14.588 11.772,26.432 26.288,26.432 14.508,0 26.28,-11.844 26.28,-26.432 C 303.276,11.844 291.504,0 276.996,0"
       fill="#0a0a0a"
       id="path2" />
    <path
       d="m 273.7,40.552 c -4.172,0 -7.604,-3.352 -7.604,-7.592 0,-4.004 2.368,-5.828 5.736,-8.264 l 1.624,-1.168 9.396,11.552 c -3.204,3.588 -6.236,5.472 -9.152,5.472 M 270.728,13.16 c 0,-2.476 1.96,-4.148 4.624,-4.148 2.42,0 4.436,1.72 4.436,4.148 0,2.128 -1.264,4.052 -3.78,5.82 l -1.6,1.112 -2.02,-2.736 c -1.1,-1.46 -1.66,-2.984 -1.66,-4.196 m 20.536,15.132 -2.116,-1.208 c -1.308,2.168 -2.768,4.092 -4.28,5.968 l -8.856,-11.04 c 4.436,-2.832 6.648,-5.316 6.648,-8.808 0,-3.888 -2.924,-6.732 -7.1,-6.732 -4.68,0 -7.844,2.892 -7.844,6.488 0,2.824 1.26,4.604 2.82,6.624 l 1.356,1.82 c -5.932,3.848 -8.896,7.24 -8.896,11.692 0,5.62 4.16,10.076 10.556,10.076 4.076,0 7.548,-1.972 10.964,-5.976 L 289,42.52 h 3.568 l -6.184,-7.292 c 1.708,-2.024 3.32,-4.304 4.88,-6.936"
       fill="#0a0a0a"
       id="path4" />
  </g>
</svg>
