<?xml version="1.0" encoding="UTF-8" standalone="no"?>
<!-- Generator: Adobe Illustrator 19.2.1, SVG Export Plug-In . SVG Version: 6.00 Build 0)  -->

<svg
   version="1.1"
   id="layer"
   x="0px"
   y="0px"
   viewBox="0 0 620.02222 253.58289"
   xml:space="preserve"
   sodipodi:docname="jean-paul-gaultier-logo-vector.svg"
   width="620.02222"
   height="253.58289"
   inkscape:version="1.1.1 (3bf5ae0d25, 2021-09-20)"
   xmlns:inkscape="http://www.inkscape.org/namespaces/inkscape"
   xmlns:sodipodi="http://sodipodi.sourceforge.net/DTD/sodipodi-0.dtd"
   xmlns="http://www.w3.org/2000/svg"
   xmlns:svg="http://www.w3.org/2000/svg"><defs
   id="defs10" /><sodipodi:namedview
   id="namedview8"
   pagecolor="#ffffff"
   bordercolor="#999999"
   borderopacity="1"
   inkscape:pageshadow="0"
   inkscape:pageopacity="0"
   inkscape:pagecheckerboard="0"
   showgrid="false"
   fit-margin-top="10"
   fit-margin-right="10"
   fit-margin-bottom="10"
   fit-margin-left="10"
   inkscape:zoom="1.1027607"
   inkscape:cx="315.11822"
   inkscape:cy="131.94159"
   inkscape:window-width="1920"
   inkscape:window-height="1001"
   inkscape:window-x="-9"
   inkscape:window-y="-9"
   inkscape:window-maximized="1"
   inkscape:current-layer="layer" />
<g
   id="jpg"
   transform="translate(-10.39041,-194.79981)">
	<path
   d="m 348,253.9 c 0,13.1 8.7,18.3 15.6,18 12.1,0 15.6,-18 13.7,-35.5 -0.9,-9.9 -4,-20.5 -15.8,-20.5 -6.9,0.8 -12.3,6.2 -13.4,13 z m -10.2,-35.5 c -3.7,0 -10.9,0.9 -10.9,-5 0,-3.4 1.8,-4.7 4,-4.7 4.3,0 8.4,0 13.4,0 0.9,0 2.5,5.3 3.7,5.3 1.2,0 4.7,-4 5.6,-4.3 6.8,-3.4 14.8,-3 21.3,0.9 7.4,5 12.1,13.2 12.8,22.1 2.5,25.5 -2.8,40.7 -11.5,45.7 -8.4,5.7 -19.4,5.5 -27.7,-0.4 v 19 c 6.5,0 15.8,-1.6 15.8,4.7 -0.1,2.6 -2.3,4.7 -5,4.6 H 331 c -2.3,-0.5 -4,-2.6 -3.8,-5 0.4,-5.9 7.1,-4.3 10.9,-4.3 v -78.5 h -0.3 z m -52.5,87.4 c -3.1,0 -8.1,-1.3 -8.1,-4.7 0,-5.3 2.8,-5.3 9.9,-5.3 0,-14.2 0.9,-42 -1.2,-47.9 -1.6,-4.3 -4.7,-7.5 -12.4,-7.5 -8.3,-0.5 -15.5,5.9 -16,14.2 -0.1,1.1 0,2.1 0.1,3.2 l -0.4,38.6 c 3.7,0 12.1,-1.6 12.4,4.3 0,3.7 -1.6,5.3 -4.6,5.3 h -21.3 c -1.8,0 -7.5,0 -7.5,-4.3 0,-4.3 5.6,-5.9 9.9,-5.6 v -53.8 c -5,0 -10.2,0.6 -10.6,-4.6 0,-7.1 7.1,-5.3 16.8,-5.3 2.8,0 3.4,1.6 4.6,5 2.5,-1.2 2.8,-2.2 6.2,-4 3.7,-1.9 7.9,-3 12.1,-3.1 7.1,0 17.1,0 20.2,9.9 1.9,5.6 2.8,11.5 2.8,17.5 v 38.2 c 5.3,0 10.2,0 10.2,5 0,3.7 -2.5,5 -6.5,5 h -16.6 z m -93.2,-10 c 6.9,0.1 12.9,-4.7 14.2,-11.5 v -15.2 c -8.4,-0.4 -26.1,0 -25.1,14.8 0.6,9 6.2,12.1 11.2,11.9 z m 17,1.6 c -11.5,12.7 -38.5,13 -38.5,-14.2 0,-17.1 10.2,-20.5 28,-23.3 5,-0.9 7.5,-3.5 7.1,-6.5 0,-8.5 0,-16.5 -10.2,-16.5 -3.8,0 -9.4,0 -10.3,5.9 -0.9,5.9 7.1,13.6 -5.3,13.6 -3.4,0 -6.5,-6.2 -6.5,-9.9 0,-13.1 12.7,-17.8 21.7,-18 6.5,0 16.5,0.6 19,9.7 4.3,14.9 2.8,36.4 3.1,51.8 -0.3,1.7 0.9,3.3 2.6,3.6 1.7,0.3 3.3,-0.9 3.6,-2.6 0.6,-9.4 -0.6,-13.4 0.6,-15.3 1.2,-1.9 2.8,-2.2 4.6,-2.2 2.6,0 4.6,2.1 4.7,4.7 0.9,7.5 0,19.9 -4.7,23.9 -2.2,1.7 -5,2.5 -7.7,2.5 -5.1,0.4 -9.9,-2.6 -11.8,-7.5 z m 206.4,-1.6 c 6.8,-0.1 12.7,-4.8 14.2,-11.5 v -15.2 c -8.7,-0.4 -26.1,0 -25.5,14.8 0.6,9 6.5,12.1 11.5,11.9 z m 16.8,1.6 c -11.1,12.7 -38.2,13 -38.2,-14.2 0,-17.1 9.9,-20.5 28,-23.3 5,-0.9 7.1,-3.5 7.1,-6.5 0,-8.5 -0.6,-16.5 -10.2,-16.5 -3.8,0 -9.7,0 -10.6,5.9 -0.9,5.9 7.5,13.6 -5,13.6 -3.7,0 -7.1,-6.2 -7.1,-9.9 0,-13.1 12.7,-17.8 22,-18 6.5,0 16.5,0.6 19,9.7 4,14.9 2.8,36.4 3.1,51.8 -0.3,1.7 0.9,3.3 2.6,3.6 1.7,0.3 3.3,-0.9 3.6,-2.6 0.6,-9.4 -0.9,-13.4 0.4,-15.3 1.3,-1.8 3.1,-2.2 5,-2.2 2.5,0.2 4.5,2.2 4.6,4.7 0.9,7.5 0,19.9 -4.6,23.9 -2.4,1.6 -5.2,2.5 -8.1,2.5 -5.1,0.3 -9.9,-2.7 -11.8,-7.5 z M 149.2,259.1 c 0,-14.2 -5.6,-20.5 -14.2,-20.2 -8.6,0.3 -15.6,7.1 -15.3,20.2 z m -29.6,10.3 c 0,17.4 7.1,26.1 14.9,26.1 7.5,0.6 14,-5 14.6,-12.5 0,-0.2 0,-0.5 0,-0.7 0,-2.5 2.5,-7.1 5.6,-7.1 7.1,0 8,11.5 0.6,19.9 -4.5,6.8 -12.3,10.8 -20.5,10.3 -8.3,0.3 -16,-4.1 -20.2,-11.2 -4.9,-8.8 -7.4,-18.8 -7.1,-28.9 0,-20.5 10.9,-36.6 28,-36.6 17.1,0 25.5,19 25.5,32.4 0,4.4 0,7.5 -2.2,7.8 -13.1,1.3 -26.3,1.6 -39.5,0.9 z m -21.8,16.2 c 0,12.1 -6.2,20.2 -18.6,20.2 -9,0 -18.7,-2.8 -18.7,-14.2 0,-5 2.2,-7.5 7.1,-7.5 4.9,0 7.1,4 5.9,7.1 -1.8,6.5 -0.6,5.9 5,5.9 7.1,0 7.7,-4.4 7.7,-14.6 L 86.6,220 c -0.4,-3.4 -1.6,-5.9 -3.4,-5.9 -5.6,0 -7.5,-0.6 -7.5,-5 0,-4.4 2.8,-4.3 5.6,-4.3 h 16.1 v 80.9 h 0.4 z m 438.6,-73.4 c 0,-4.6 10.6,-4 18.7,-4 h 0.6 c 0.9,0 1.7,0.6 1.9,1.5 0.3,1.2 0.5,2.5 0.6,3.8 v 78.1 c 0,5 1.6,6.5 3.7,6.5 h 5.6 c 1.2,0 2.2,0.6 2.8,1.6 0.4,0.5 0.6,1.2 0.6,1.8 v 0.4 0 c 0,1 -0.3,2 -0.9,2.8 -0.6,0.9 -1.7,1.3 -2.8,1.2 h -27.3 c -0.9,0 -1.8,-0.4 -2.2,-1.2 -0.5,-0.7 -0.9,-1.4 -1.2,-2.2 v -0.6 0.6 -0.9 c 0.3,-0.8 0.7,-1.6 1.3,-2.2 0.4,-0.7 1.3,-1.2 2.1,-1.2 3.5,0 6.2,0.6 7.5,-2.8 0.4,-1.2 0.4,-2.5 0,-3.8 v -67.3 c 0,-5.6 -1.8,-7.1 -4.6,-7.5 -5.3,0 -6.5,-0.6 -7.1,-4.7 h 0.7 z m -14.2,81.7 c 1.8,0 11.1,-2.8 11.1,2.2 0,6.2 -13.4,9.3 -17,9.3 -3.6,0 -3.1,-5.9 -3.1,-9.6 -4.8,6.9 -12.9,10.6 -21.3,9.9 -8.5,0.2 -15.9,-5.8 -17.4,-14.2 -3.4,-12.7 -1.3,-32 -1.6,-44.7 0,-5.6 -1.8,-5.6 -4.3,-5.9 -2.5,-0.3 -5.9,-0.9 -5.9,-3.7 -0.4,-4.4 4.3,-4 9,-4 3.8,-0.3 7.7,-0.3 11.5,0 0.7,0.9 1.1,2 1.2,3.1 0,9.9 0,34.4 0,49.1 0,9.7 5.3,12.4 11.5,12.4 6.4,-1.2 12.2,-4.7 16.2,-9.9 v -39.2 c 0,-3.5 0,-7.1 -1.6,-8.5 -1.6,-1.3 -9.9,1 -10.2,-3.7 0,-3.1 0.9,-4.6 4.6,-4.6 h 14.2 c 1.1,0 2,0.8 2.2,1.8 0.7,1.2 1,2.6 0.9,4 z"
   id="path2" />
	<path
   d="m 338.6,305.1 c -2.6,2.6 -4.2,6 -4.6,9.7 -1,3.5 -1.4,7.2 -1.3,10.9 0.2,1.4 0.2,2.9 0,4.3 -0.5,1.3 -1.7,2.2 -3.1,2.5 -1.3,0 -2.2,0 -3.1,-1.5 l -0.9,-1.6 -3.5,-28.9 15.6,-2.2 1.3,7.1 z m 31.2,-12.1 9.9,78.1 c 0,2.8 0.6,4 1.2,4.6 0.9,1 2.2,1.5 3.5,1.6 1.5,0.1 2.8,1.3 3.1,2.8 0.1,1.3 -0.5,2.6 -1.5,3.5 -0.7,0.5 -1.4,0.8 -2.2,0.9 l -31,5.2 c -2.8,0 -4.3,-0.9 -4.6,-3.1 -0.4,-1.5 0.4,-3.1 1.8,-3.7 1.8,-0.9 3.1,-1.8 3.4,-2.8 0.1,-1.6 0.1,-3.1 0,-4.7 l -9.9,-78.1 27,-4.4 z m 36.7,3.5 c -1,-0.9 -2.3,-1.4 -3.7,-1.3 -1.5,-0.4 -2.5,-1.8 -2.5,-3.4 -0.3,-1.4 0.3,-2.8 1.5,-3.5 0,-0.6 0.9,-0.9 2.2,-0.9 l 31.1,-5 c 2.8,0 4.3,0.6 4.3,3.1 0.4,1.5 -0.4,3.1 -1.8,3.7 -1.8,1 -2.8,1.9 -2.8,2.6 -0.3,1.5 -0.3,3.1 0,4.6 l 8.4,64.7 c 0.1,1.5 0.4,2.9 1,4.3 1,1 2.3,1.6 3.7,1.8 1.4,0 2.7,1.1 2.8,2.5 0.3,1.5 -0.3,3 -1.6,3.8 l -2.1,0.9 -31.1,5 h -2.2 c -1.5,-0.4 -2.1,-1.6 -2.5,-3.1 -0.2,-1.5 0.6,-2.9 1.8,-3.7 1.8,-1 3.1,-1.9 3.1,-2.8 0,-0.9 0,-1.8 0,-4.6 l -8.4,-63.9 c 0,-1.6 -0.3,-3.2 -0.9,-4.6 z m -30.8,2.8 -0.9,-7.1 15.8,-2.7 3.7,28.4 c 0.4,0.6 0,1.2 0,1.8 -0.5,1.2 -1.6,2 -2.8,2.1 -1.2,0.5 -2.6,0 -3.2,-1.1 -1,-0.6 -1,-1.8 -1.9,-3.8 -0.9,-3.4 -2,-6.7 -3.4,-9.9 -1.7,-3.2 -4.1,-5.8 -7.1,-7.8 h -0.2 z m 142.1,-30.2 3.5,25.1 c 0,1.8 -0.9,2.8 -3.1,3.1 -2.2,0.4 -2.5,-0.4 -3.4,-2.6 -3.1,-8.7 -11.3,-14.5 -20.5,-14.6 l -0.9,-7.1 z m 15.9,5 c -1.6,-0.3 -3,-1.5 -3.3,-3.1 0,-2.2 0.9,-3.8 3.7,-4.7 l 29.3,-4.6 9.9,78.6 c 0.2,1.5 0.5,2.9 1,4.3 1.1,0.8 2.4,1.3 3.7,1.6 1.5,0.1 2.7,1.3 2.8,2.8 0.4,2.2 -0.9,3.8 -3.4,4.7 l -31.4,5 -2.2,-0.4 c -1.4,-0.1 -2.5,-1.3 -2.5,-2.8 -0.4,-1.6 0.4,-3.3 1.8,-4 1.4,-0.5 2.5,-1.4 3.5,-2.5 0.2,-1.6 -0.1,-3.2 -0.6,-4.7 l -7.7,-63.9 c -0.3,-1.6 -0.8,-3.1 -1.3,-4.7 -0.6,-0.6 -1.5,-0.9 -3.3,-1.2 z m -78.2,9 c -0.6,-2.1 0.6,-3.7 3.4,-4.3 l 29.3,-4.6 11.8,91.6 -29.2,5 h -2.6 c -1.1,-0.7 -1.8,-1.8 -1.8,-3.1 -0.2,-1.5 0.5,-3 1.8,-3.7 2.2,-0.9 3.1,-1.6 3.4,-2.5 0.1,-1.6 0.1,-3.1 0,-4.7 l -8.5,-64.3 c 0.1,-1.6 -0.2,-3.2 -0.9,-4.6 -1,-0.7 -2.2,-1.2 -3.4,-1.6 -1.8,0 -2.8,-1.3 -2.8,-2.8 z m 55.7,19.3 3.7,26.7 v 3 c -0.1,1.4 -1.1,2.6 -2.5,2.8 -1.6,0 -3.1,-0.9 -4,-3.7 -2.2,-5.6 -5.3,-9 -9,-9.4 l -0.9,-7.7 c 3.7,-1.8 5.6,-5.6 6.2,-12.1 0,-2.8 1.2,-4.4 3.1,-4.4 1.9,0 2.6,0 2.8,1.6 l 0.6,3.1 z m 16.1,33.8 2.8,24.9 -25.5,4 -0.6,-7.1 c 4.3,-1.2 8,-3.7 10.9,-7.1 3,-3.9 4.9,-8.5 5.6,-13.4 l 0.9,-2.8 c 0.2,-1 1.2,-1.7 2.2,-1.6 2.2,-0.4 3.1,0.9 3.7,3.4 z M 580,259.5 c 3.7,-0.1 7.3,0.3 10.9,1.2 7.8,2.9 13.3,10 14.2,18.3 0.9,5.9 -0.4,11.9 -3.8,16.8 -3.7,4.1 -8.3,7.4 -13.4,9.7 v 0 c 4.9,-0.2 9.7,0.7 14.2,2.6 4.3,2.6 7.2,7.1 7.7,12.1 l 1.6,13.4 c 0,0.6 0.6,1.3 0.9,1 0.9,-0.5 1.6,-1.1 2.1,-1.9 0.4,-1.2 1.4,-2.1 2.6,-2.5 0.9,0.2 1.7,0.5 2.5,0.9 0.6,0.6 0.9,1.4 0.9,2.2 0.1,2 -0.4,4.1 -1.3,5.9 -1,1.8 -2.2,3.6 -3.4,5.3 -3.1,3.6 -7.4,5.9 -12.1,6.6 -4.6,0.6 -9.2,-0.5 -13,-3.1 -2.1,-1.9 -3.7,-4.3 -4.4,-7.1 -1,-2.6 -1.6,-5.3 -1.8,-8.1 l -1.3,-8.7 c -0.2,-2.8 -0.8,-5.5 -1.8,-8.1 -1,-2.6 -3.7,-4.2 -6.5,-3.8 l -0.9,-7.5 c 2.8,-0.9 4.7,-2.1 5.3,-4.3 0.6,-2.4 0.6,-5 0,-7.5 L 577.3,278 c -0.2,-2.5 -0.8,-4.9 -1.8,-7.1 -1.6,-1.8 -3.8,-3 -6.2,-3.5 l -0.8,-6.3 h 0.6 l 10.9,-1.3 z m -250.6,133.9 -23.4,3.4 -0.6,-7.1 c 8.1,-2.6 12.4,-10.3 13.4,-23.6 0.4,-2.5 1.6,-4 3.7,-4.3 1,-0.1 2,0.3 2.6,1.2 l 0.9,3.1 c 0,0 3.4,27.3 3.4,27.3 z M 79.9,337.5 c 1.8,0 3.1,0.9 3.7,3.8 l 3.4,27.3 c 0,2.8 -0.9,4.6 -3.1,5 -2.1,0.4 -2.6,-0.4 -3.1,-1.3 -0.9,-0.8 -1.5,-1.9 -1.6,-3.1 -2.1,-6 -5.8,-11.5 -10.5,-15.8 -3.7,-3.1 -8.5,-4.6 -13.4,-4 l -0.9,-7.8 c 4.6,-0.1 9.2,0.1 13.7,0.6 l 5.6,0.9 c 1.2,0 2.1,-0.9 3.1,-2.5 0.9,-1.6 1.8,-2.8 3.1,-3.1 z m 63.9,-8.1 26.1,74.8 1.8,4 c 0.6,1.3 1.8,2.6 3.1,2.6 1.8,0.2 3.2,1.8 3.1,3.7 0,1.2 -0.4,2.2 -1.6,3.1 -1.4,0.2 -2.7,0.5 -4,0.9 L 145,423 c -3.7,0.6 -5.6,0 -5.9,-2.5 V 418 l 1.6,-1.6 c 1.1,-0.6 2,-1.6 2.5,-2.8 0.1,-1.7 -0.2,-3.4 -0.9,-5 l -3.4,-9 -16.1,2.5 0.6,-7.1 13.4,-2.2 -18.2,-52.6 v -7.1 l 24.9,-4 z m 33.2,-5.6 31.4,-5 c 1.9,-0.5 3.9,0.6 4.5,2.5 0.1,0.3 0.1,0.6 0.1,0.9 0.2,1.5 -0.7,2.9 -2.1,3.4 -1.2,0.6 -2.3,1.6 -2.8,2.8 -0.3,1.4 -0.3,2.9 0,4.3 l 7.5,59.4 c 0.6,2.8 0.9,5 1.2,5.9 1.2,3.4 4.2,5.9 7.7,6.5 l 1.3,7.1 -12.4,1.2 c -4.1,0 -8.1,-0.9 -11.8,-2.5 -3.9,-1.3 -7.4,-3.6 -10.3,-6.5 -1.4,-2.5 -2.5,-5.2 -3.3,-8 l -7.1,-58.2 c -0.1,-1.6 -0.5,-3.2 -1.3,-4.6 0,-0.6 -1.5,-1.3 -3.4,-1.6 -1.9,-0.3 -2.8,-1.3 -2.8,-2.8 -0.4,-1.6 0.4,-3.1 1.8,-3.9 l 1.9,-0.9 z m 52.2,-0.3 -2.8,-1.3 c -0.9,0 -0.9,-1.5 -1.2,-2.5 0,-2.5 1.2,-3.7 5.3,-4.3 l 12.4,-2.2 h 3.3 c 1.6,0 3,1.2 3.1,2.8 0,1.1 -0.4,2.1 -1.2,2.8 l -2.6,2.1 c -2.6,3.5 -3.8,7.8 -3.4,12.1 l 6.2,46.6 c 0.8,8 -1.3,16.1 -5.9,22.7 -2.8,4.3 -7.1,7.3 -12.1,8.4 l -0.9,-7.1 c 4.1,-2 7.5,-5.3 9.7,-9.4 2.1,-4.4 2.9,-9.4 2.2,-14.2 l -6,-45.9 c -1.3,-5.9 -3.4,-9.6 -6.5,-10.9 z m 34.3,-4.1 c -1.1,-0.8 -2.4,-1.3 -3.8,-1.5 -1.6,-0.1 -2.8,-1.3 -3.1,-2.8 0,-2.2 1.7,-4.1 3.9,-4.3 l 31.4,-5 h 2.1 c 1.4,0.3 2.4,1.4 2.6,2.8 0.2,1.6 -0.7,3.1 -2.2,3.7 -1.6,0.9 -2.8,1.8 -2.8,2.8 -0.4,1.5 -0.4,3.2 0,4.7 l 9.9,78.1 -29.2,4.7 h -2.1 c -1.4,-0.5 -2.4,-1.7 -2.6,-3.1 -0.3,-1.6 0.6,-3.2 2.2,-3.7 1.6,-0.9 2.8,-1.6 3.1,-2.6 0.2,-1.5 0,-3.1 -0.4,-4.6 l -8,-64.3 c -0.6,-2.8 -0.6,-4 -0.9,-4.7 z m -146.1,31.8 4.7,13.4 -5.3,43.5 c -0.5,2.7 -0.3,5.5 0.6,8.1 1.1,1.4 2.6,2.5 4.3,3.1 l 2.5,0.9 c 0.6,0.7 1,1.6 1.3,2.5 0.4,1.3 -0.3,2.7 -1.6,3.1 l -3.4,1.3 -13.1,1.8 c -4,0.6 -6.2,0 -6.5,-2.8 0,-1 0.3,-2 0.9,-2.8 l 2.8,-1.8 c 3.7,-3.8 5.7,-8.9 5.6,-14.2 l 7.1,-56.2 z m -51.2,45.6 c -1.4,-0.7 -3,-0.9 -4.5,-0.9 -2.2,-0.4 -3.1,-1.3 -3.1,-3.1 0,-1.8 0.9,-3.7 3.7,-4 l 26.8,-4.3 c 2.5,-0.6 3.7,0.6 4.3,3.1 -0.1,1.5 -0.7,2.9 -1.6,4 -0.9,0.6 -1.4,1.5 -1.5,2.6 v 1.2 l 3.1,24.6 c -3.3,4.4 -7.2,8.3 -11.6,11.6 -4.5,2.9 -9.6,4.9 -14.9,5.9 L 66,430.4 c 3.4,-1.4 5.1,-5.2 4,-8.7 l -2.8,-22.1 c -0.1,-0.9 -0.5,-1.8 -1,-2.5 z M 27,360.5 c 4.2,-9.2 12.5,-15.9 22.4,-18 l 0.9,7.1 c -3.4,1.8 -4.6,5.9 -4,12.1 l 7.7,58.7 c 0.9,6.2 2.8,9.7 6.5,10.6 l 1.3,7.1 c -4.8,0.7 -9.7,0.1 -14.2,-1.8 -4.6,-1.9 -8.7,-4.8 -12.1,-8.4 -8.3,-8.7 -13.3,-20 -14.2,-32 -2.2,-12.1 -0.4,-24.6 5.3,-35.5 z"
   id="path4" />
</g>
</svg>
